<?xml version="1.0" encoding="UTF-8" standalone="no"?>
<!-- Created with Inkscape (http://www.inkscape.org/) -->

<svg
   width="210mm"
   height="297mm"
   viewBox="0 0 210 297"
   version="1.1"
   id="svg1"
   xml:space="preserve"
   inkscape:version="1.3.2 (091e20e, 2023-11-25, custom)"
   sodipodi:docname="rysunek.svg"
   xmlns:inkscape="http://www.inkscape.org/namespaces/inkscape"
   xmlns:sodipodi="http://sodipodi.sourceforge.net/DTD/sodipodi-0.dtd"
   xmlns="http://www.w3.org/2000/svg"
   xmlns:svg="http://www.w3.org/2000/svg"><sodipodi:namedview
     id="namedview1"
     pagecolor="#ffffff"
     bordercolor="#000000"
     borderopacity="0.25"
     inkscape:showpageshadow="2"
     inkscape:pageopacity="0.0"
     inkscape:pagecheckerboard="0"
     inkscape:deskcolor="#d1d1d1"
     inkscape:document-units="mm"
     inkscape:zoom="0.79375"
     inkscape:cx="442.83465"
     inkscape:cy="558.74016"
     inkscape:window-width="1920"
     inkscape:window-height="1129"
     inkscape:window-x="2872"
     inkscape:window-y="-8"
     inkscape:window-maximized="1"
     inkscape:current-layer="layer1" /><defs
     id="defs1" /><g
     inkscape:label="Warstwa 1"
     inkscape:groupmode="layer"
     id="layer1"><path
       style="fill:#d4aa00"
       d="m 98.914128,233.59924 c -10.518465,-0.60162 -22.542896,-3.16201 -29.872096,-6.36075 -9.167808,-4.00118 -19.014227,-10.69316 -26.672967,-18.12791 -7.594725,-7.37261 -15.12253,-17.99952 -19.927973,-28.13206 -3.742846,-7.892 -5.732067,-13.43502 -7.49139,-20.87497 -2.22004,-9.38825 -2.926791,-15.88077 -2.746882,-25.23401 0.114447,-5.94992 0.350129,-8.09571 1.415277,-12.88555 2.256801,-10.14855 6.798749,-20.925 12.240238,-29.041796 1.561799,-2.329656 1.620036,-2.481008 2.190418,-5.692578 0.635916,-3.58056 0.922679,-4.749257 0.7715,-3.144226 -0.05704,0.605597 -0.168271,2.559405 -0.247178,4.341796 -0.117798,2.660897 -0.207133,3.33771 -0.499315,3.782859 -0.425733,0.648621 -0.666555,3.281435 -0.319756,3.495765 0.39293,0.24285 0.759757,-1.434 1.073293,-4.906272 0.05272,-0.583843 0.397295,-1.772337 0.765903,-2.641719 0.368537,-0.869214 0.84828,-2.171753 1.066095,-2.894531 0.647212,-2.147655 1.624467,-4.691094 1.802438,-4.691094 0.09121,0 0.11877,0.151963 0.06124,0.337696 -0.05753,0.185732 -0.323892,1.270467 -0.59191,2.410521 -0.54037,2.298537 -0.64145,3.735135 -0.246096,3.497614 0.184099,-0.110603 0.182496,-0.07242 -0.0068,0.161268 -0.13639,0.168401 -0.230913,0.380451 -0.21005,0.471222 0.02086,0.09077 -0.05967,0.400923 -0.17896,0.689226 -0.11929,0.288303 -0.400625,1.330334 -0.625188,2.315625 -0.224564,0.98529 -0.450763,1.9434 -0.502664,2.129132 -0.05821,0.208296 0.01148,0.337696 0.181873,0.337696 0.152575,0 0.430398,-0.41034 0.620591,-0.916602 0.189392,-0.504131 0.752143,-1.741543 1.250557,-2.749804 1.254368,-2.537513 1.684336,-3.797252 1.394861,-4.086727 -0.17356,-0.17356 -0.327494,-0.139575 -0.657128,0.145075 -0.779733,0.673327 0.8477,-1.287195 3.528709,-4.250936 6.307058,-6.972183 14.328529,-12.96603 23.497228,-17.557724 15.952856,-7.989208 38.575023,-10.967473 59.209064,-7.795021 1.50733,0.231749 2.71039,0.471492 2.67348,0.532762 -0.0369,0.06127 0.30271,0.128258 0.75473,0.148862 2.17686,0.09923 9.79151,2.243249 14.38236,4.049578 5.02945,1.978898 15.03574,7.307342 15.40534,8.203484 0.0354,0.08578 0.14869,0.15596 0.2518,0.15596 0.2954,0 2.22031,1.358538 4.21982,2.978212 1.55861,1.26253 5.40195,4.843642 5.40195,5.033383 0,0.03373 0.67931,0.744293 1.50958,1.579041 0.83028,0.834747 1.94041,2.166144 2.46697,2.95866 1.85042,2.785046 4.09137,8.231078 5.30436,12.890853 0.25968,0.99756 0.65939,1.95037 1.05237,2.50859 5.26065,7.47257 9.29433,15.51761 12.30345,24.53876 1.68481,5.05095 2.63283,9.31046 3.34995,15.05156 0.42797,3.42621 0.4904,14.01519 0.10354,17.56016 -0.38412,3.51979 -0.86093,6.74583 -0.98595,6.67084 -0.0632,-0.0379 -0.1297,0.41892 -0.14788,1.01511 -0.0182,0.5962 -0.11751,1.11215 -0.22072,1.14656 -0.10322,0.0344 -0.14592,0.2222 -0.0949,0.41731 0.12654,0.4839 -1.46777,6.8506 -2.51592,10.04705 -1.28895,3.93079 -2.48563,6.85351 -4.46402,10.90273 -3.07129,6.28608 -6.81075,12.04729 -11.27262,17.36719 -3.03213,3.61521 -10.59054,10.87837 -11.03483,10.60378 -0.10294,-0.0636 -0.1633,-0.0116 -0.13414,0.11552 0.0719,0.31334 -3.09844,2.7349 -3.36493,2.57021 -0.1192,-0.0737 -0.15717,-0.0427 -0.087,0.0709 0.16071,0.26003 -0.77881,0.88147 -1.06512,0.70452 -0.1259,-0.0778 -0.16408,-0.0481 -0.0908,0.0705 0.16624,0.269 -3.08084,2.43169 -3.37656,2.24892 -0.13563,-0.0838 -0.17134,-0.0538 -0.0908,0.0765 0.13604,0.22011 -0.88603,0.87003 -1.10984,0.70573 -0.0665,-0.0488 -0.0764,-0.0298 -0.0221,0.0423 0.14882,0.19722 -2.41537,1.62791 -2.65369,1.48062 -0.11467,-0.0709 -0.15076,-0.0375 -0.0812,0.075 0.15028,0.24316 -0.40052,0.49025 -0.6917,0.3103 -0.11295,-0.0698 -0.15042,-0.038 -0.0833,0.0706 0.16457,0.26627 -1.71888,1.22607 -2.14041,1.09075 -0.24111,-0.0774 -0.26503,-0.0575 -0.0859,0.0714 0.32072,0.23082 -1.16503,0.93469 -1.51562,0.71802 -0.14828,-0.0917 -0.19059,-0.0688 -0.11105,0.0599 0.28607,0.46287 -8.54941,3.45055 -13.19074,4.46039 -10.96907,2.38661 -26.58372,3.03325 -37.532422,1.55432 -8.152393,-1.10122 -14.991252,-2.76539 -19.972265,-4.86006 -6.476885,-2.72374 -14.916903,-8.0467 -21.319418,-13.44576 -8.076351,-6.81056 -16.628329,-17.7592 -22.175853,-28.39056 -4.792461,-9.18435 -8.294177,-20.33794 -9.556081,-30.43782 -0.797913,-6.38624 -0.870837,-7.51547 -0.868741,-13.45262 0.0023,-6.52977 0.238852,-9.255 1.162696,-13.39528 0.720087,-3.22714 2.374541,-8.37023 4.226269,-13.13792 0.886253,-2.28185 1.930501,-5.01718 2.320552,-6.07851 0.390051,-1.06133 1.151236,-2.84147 1.691521,-3.95586 0.833092,-1.71834 0.993691,-2.23139 1.057074,-3.37695 0.04111,-0.74293 -0.005,-1.56185 -0.102503,-1.81982 -0.165632,-0.43831 -0.234596,-0.3688 -1.052864,1.06133 -0.481593,0.8417 -1.282685,2.22505 -1.780205,3.07411 -2.43102,4.14875 -5.347811,10.68128 -6.634404,14.85859 -3.627369,11.77736 -4.336379,20.77623 -2.622649,33.28711 1.891791,13.8108 6.423226,26.80597 13.931733,39.95317 3.125329,5.47237 5.966201,9.36638 11.296983,15.48488 3.046985,3.49724 6.331794,6.56837 11.498196,10.75023 1.439568,1.16523 4.460715,3.30193 6.867148,4.85676 10.401003,6.72026 19.308736,9.99076 32.213084,11.82715 5.462681,0.77738 8.200558,0.95912 14.388869,0.95516 11.7179,-0.007 20.49934,-1.45395 30.2899,-4.98924 8.37721,-3.02495 17.25333,-8.18439 23.93432,-13.91236 12.35055,-10.58879 21.29476,-23.44506 26.77715,-38.48903 3.67599,-10.08712 5.18862,-18.06856 5.39424,-28.46289 0.1756,-8.87668 -0.45383,-14.44095 -2.55392,-22.57734 -3.2978,-12.77666 -9.57243,-25.77858 -19.31311,-40.019468 -0.89933,-1.314808 -1.60095,-2.487093 -1.55917,-2.605078 0.0418,-0.117985 1.5e-4,-0.431608 -0.0925,-0.69694 l -0.16845,-0.482422 0.3857,0.482422 c 0.21214,0.265332 0.34483,0.595477 0.29486,0.733655 -0.05,0.138179 -0.0153,0.20452 0.0771,0.147425 0.23893,-0.147666 4.73562,5.714463 7.14398,9.313268 6.35861,9.501678 11.8336,21.330848 14.66263,31.679868 3.76289,13.7652 3.89849,29.00307 0.38381,43.12851 -1.9662,7.90213 -5.72347,17.21848 -9.79398,24.2847 -4.84626,8.41288 -11.43007,16.58376 -18.35789,22.78319 -4.10403,3.67253 -8.50334,7.00106 -8.91612,6.74595 -0.12184,-0.0753 -0.15886,-0.044 -0.0865,0.0731 0.16053,0.25973 -5.80086,3.96403 -6.0909,3.78478 -0.11587,-0.0716 -0.15839,-0.0456 -0.0945,0.0577 0.13904,0.22498 -3.94935,2.41464 -4.32783,2.31791 -0.14491,-0.037 -0.18979,-0.0281 -0.0997,0.0199 0.09,0.048 -0.20095,0.25054 -0.64668,0.4501 -0.44573,0.19956 -0.90188,0.30631 -1.01367,0.23723 -0.11178,-0.0691 -0.14762,-0.0356 -0.0796,0.0744 0.0727,0.11769 -0.6496,0.51931 -1.75515,0.97586 -11.45026,4.72857 -26.21352,7.00235 -40.25174,6.19941 z m 18.400712,-7.87061 c 11.9998,-1.47414 20.28955,-4.72769 31.16445,-12.23139 6.72297,-4.63886 10.10839,-7.47766 14.47388,-12.13688 1.79887,-1.9199 5.86628,-6.92765 8.20055,-10.09643 3.96958,-5.3887 9.4109,-15.15395 11.72438,-21.04112 0.97728,-2.48689 2.36174,-6.79669 2.36174,-7.35204 0,-0.1593 0.0787,-0.24098 0.17497,-0.1815 0.0962,0.0595 0.13453,-0.0465 0.0851,-0.23555 -0.0494,-0.18903 0.0123,-0.60162 0.1373,-0.91687 0.12495,-0.31524 0.25748,-0.86991 0.29451,-1.23259 0.037,-0.36267 0.15023,-0.74231 0.25155,-0.84363 0.10132,-0.10132 0.1377,-0.30545 0.0808,-0.45362 -0.0569,-0.14818 -0.002,-0.51458 0.1223,-0.81424 0.21604,-0.52158 0.29813,-1.21219 0.37019,-3.11464 0.0225,-0.59313 0.0875,-0.78211 0.20516,-0.59624 0.32945,0.52042 0.49188,-1.94565 0.49457,-7.50845 0.002,-4.68347 -0.0636,-5.98643 -0.44365,-8.78008 -1.47096,-10.81204 -4.54174,-20.85067 -8.93081,-29.19551 -1.8181,-3.45671 -2.27388,-4.2428 -3.82674,-6.59994 -0.80398,-1.22039 -1.54412,-2.39268 -1.64475,-2.60508 -0.13061,-0.27564 -0.22212,0.38713 -0.31972,2.31538 -0.0752,1.48586 -0.27895,3.22258 -0.45276,3.85937 -0.47307,1.73324 -1.66389,4.04922 -3.01052,5.85506 -1.46484,1.96437 -4.40346,5.08572 -4.64655,4.93549 -0.0974,-0.0602 -0.15326,-0.0302 -0.12409,0.0668 0.0797,0.26478 -1.16265,1.24987 -1.39508,1.10622 -0.11093,-0.0686 -0.17784,-0.01 -0.14867,0.1309 0.0292,0.14055 -0.062,0.23169 -0.20253,0.20253 -0.14056,-0.0292 -0.20753,0.0247 -0.14884,0.11965 0.12241,0.19806 -2.12358,1.8309 -2.51842,1.8309 -0.14365,0 -0.21592,0.0453 -0.16061,0.10056 0.17147,0.17148 -1.64929,1.2056 -1.87599,1.06549 -0.11764,-0.0727 -0.16148,-0.0474 -0.0974,0.0563 0.15767,0.25512 -2.30003,1.67545 -2.58954,1.49652 -0.13123,-0.0811 -0.17759,-0.0589 -0.10893,0.0522 0.16062,0.25988 -2.66709,1.68403 -2.9709,1.49626 -0.14267,-0.0882 -0.1866,-0.0658 -0.11096,0.0566 0.15028,0.24317 -0.40052,0.49026 -0.6917,0.3103 -0.11295,-0.0698 -0.15085,-0.0387 -0.0842,0.0691 0.16942,0.27413 -2.21573,1.25899 -2.6805,1.10682 -0.27871,-0.0913 -0.30513,-0.0741 -0.10533,0.0683 0.21444,0.15282 0.18642,0.21556 -0.143,0.32011 -0.22533,0.0715 -0.51073,0.0676 -0.63421,-0.009 -0.13097,-0.0809 -0.17279,-0.0551 -0.10039,0.0621 0.15694,0.25393 -0.57397,0.45297 -1.21649,0.33127 -0.37363,-0.0708 -0.40372,-0.0554 -0.12815,0.0656 0.28138,0.12353 0.10094,0.23012 -0.82554,0.48771 -0.65209,0.1813 -1.37856,0.29783 -1.61438,0.25896 -0.23582,-0.0389 -0.29851,-0.0282 -0.13931,0.0236 0.1592,0.0519 -0.26779,0.24799 -0.94887,0.43585 -0.68108,0.18786 -1.37577,0.29825 -1.54375,0.24532 -0.23758,-0.0749 -0.24825,-0.0553 -0.048,0.0881 0.2078,0.14881 0.19515,0.20821 -0.0656,0.30829 -0.17768,0.0682 -0.41546,0.0668 -0.52842,-0.003 -0.11371,-0.0703 -0.14949,-0.0365 -0.0802,0.0756 0.13744,0.22238 -0.31023,0.4583 -0.69271,0.36506 -0.13266,-0.0323 -0.16993,-0.0203 -0.0828,0.0267 0.26481,0.14293 -0.89699,0.67938 -1.41269,0.65228 -0.37855,-0.0199 -0.4201,0.0152 -0.19297,0.16276 0.22526,0.14639 0.16924,0.18877 -0.2526,0.19107 -0.31165,0.002 -0.49136,0.085 -0.42279,0.19592 0.0686,0.11094 -0.11115,0.19422 -0.42279,0.19592 -0.42089,0.002 -0.47735,0.0448 -0.2526,0.19002 0.21964,0.14194 0.13821,0.18777 -0.3377,0.19001 -0.34493,0.002 -0.62715,0.0898 -0.62715,0.19592 0,0.10614 -0.19538,0.1943 -0.43418,0.19593 -0.35109,0.002 -0.37879,0.0387 -0.14472,0.19001 0.23406,0.15127 0.20636,0.18763 -0.14473,0.19002 -0.2388,0.002 -0.43418,0.0898 -0.43418,0.19592 0,0.10613 -0.17367,0.19297 -0.38594,0.19297 -0.21226,0 -0.36423,0.10854 -0.33769,0.24121 0.0265,0.13267 -0.0668,0.21735 -0.20731,0.18819 -0.14056,-0.0292 -0.20018,0.0366 -0.1325,0.14609 0.0677,0.10951 -0.0212,0.25447 -0.19755,0.32214 -0.17633,0.0677 -1.14074,1.15533 -2.14313,2.41703 -1.15975,1.45977 -1.90725,2.24539 -2.05549,2.1603 -0.12813,-0.0735 -0.16839,-0.0625 -0.0895,0.0246 0.1671,0.1844 -0.62976,0.79905 -0.91537,0.70606 -0.10614,-0.0346 -0.12765,0.002 -0.0478,0.0823 0.21931,0.21931 -0.43005,0.8415 -0.75008,0.71869 -0.17096,-0.0656 -0.25745,-0.004 -0.22308,0.15774 0.0318,0.1498 -0.0873,0.25379 -0.27399,0.23934 -0.18157,-0.014 -0.31183,0.0728 -0.28946,0.19297 0.0236,0.12684 -0.16172,0.19465 -0.44174,0.16163 -0.38149,-0.045 -0.42186,-0.0153 -0.19297,0.14178 0.25729,0.17657 0.25729,0.20151 0,0.22446 -0.1592,0.0142 -0.41971,0.007 -0.57891,-0.0154 -0.1592,-0.0227 -0.22262,0.0266 -0.14094,0.10958 0.20045,0.2035 -1.3559,0.90252 -1.63096,0.73252 -0.12271,-0.0758 -0.16434,-0.0485 -0.0956,0.0628 0.25071,0.40565 -2.03356,0.87195 -4.74771,0.96916 -2.40753,0.0862 -2.64931,0.1268 -2.55355,0.4285 0.0582,0.18329 0.2763,1.2282 0.48473,2.32203 0.20842,1.09383 0.43116,2.04109 0.49498,2.10503 0.0638,0.0639 0.88988,0.14659 1.83571,0.18366 2.05269,0.0805 3.59533,-0.32292 6.15895,-1.61044 2.83375,-1.4232 5.16184,-3.10348 7.04475,-5.08451 5.604,-5.896 8.0935,-8.08236 10.84913,-9.52807 0.93161,-0.48876 3.90816,-1.81571 6.61454,-2.94877 6.78515,-2.84069 9.80891,-4.46762 13.70078,-7.37169 1.30517,-0.9739 4.76294,-4.21771 6.15186,-5.77119 1.10141,-1.2319 2.63358,-3.49459 2.98307,-4.40535 0.10863,-0.2831 0.18401,-0.30131 0.42373,-0.10236 0.24645,0.20454 0.27121,0.1855 0.15994,-0.12299 -0.0724,-0.20075 -0.0569,-0.29687 0.0344,-0.21362 0.0913,0.0833 0.22593,0.60427 0.29913,1.15781 0.0732,0.55354 0.18559,1.22353 0.24975,1.48887 0.0642,0.26533 0.0318,1.16191 -0.0718,1.9924 -0.27343,2.19073 -1.00888,3.46175 -3.3744,5.83169 -3.70707,3.714 -8.6718,6.98464 -14.94628,9.84621 -1.85915,0.8479 -2.88695,1.21734 -3.16798,1.13874 -0.30015,-0.084 -0.34172,-0.065 -0.14928,0.0682 0.21325,0.14753 0.18459,0.21057 -0.143,0.31454 -0.22534,0.0715 -0.51074,0.0676 -0.63422,-0.009 -0.13171,-0.0814 -0.17276,-0.055 -0.0993,0.0638 0.1659,0.26843 -0.40077,0.47404 -0.91286,0.33123 -0.32458,-0.0905 -0.34838,-0.0725 -0.11754,0.0891 0.24503,0.17155 0.23022,0.20777 -0.0965,0.23601 -0.21227,0.0183 -0.49355,0.0295 -0.62508,0.0247 -0.13152,-0.005 -0.19725,0.0592 -0.14606,0.14199 0.1288,0.20839 -0.76022,0.40976 -1.19146,0.26987 -0.24134,-0.0783 -0.2766,-0.0593 -0.11145,0.06 0.32028,0.23141 -1.85297,0.89176 -2.37311,0.72107 -0.24816,-0.0814 -0.29528,-0.0646 -0.13783,0.0494 0.1577,0.1141 -1.15391,0.59459 -3.84857,1.40984 -2.24829,0.68021 -4.61368,1.49853 -5.25642,1.81849 l -1.16862,0.58174 0.79398,0.0626 c 1.35441,0.1068 6.24956,-0.49631 8.27555,-1.0196 7.80218,-2.01521 16.64821,-5.91578 22.57735,-9.95526 4.59384,-3.12976 7.9989,-6.94243 8.325,-9.32157 0.0677,-0.49373 0.18656,-0.93696 0.26421,-0.98494 0.0776,-0.048 0.1154,-0.37125 0.0839,-0.71837 -0.0315,-0.34711 -0.0131,-0.52257 0.0409,-0.3899 0.054,0.13266 0.18984,0.24121 0.30187,0.24121 0.35382,0 0.0388,-2.10975 -0.60514,-4.05245 -1.12868,-3.40526 -1.26489,-4.05311 -1.02827,-4.89082 0.14001,-0.49568 0.20464,-0.38299 0.66401,1.15781 0.62657,2.10162 2.24822,6.68486 3.79793,10.73406 2.8751,7.5123 4.27446,14.97621 4.58454,24.45296 0.26192,8.00506 -1.05872,17.07794 -3.51252,24.13115 -5.04366,14.49755 -14.88564,27.83526 -27.90744,37.81977 -2.59543,1.99005 -4.24803,3.07774 -4.47746,2.94693 -0.11791,-0.0672 -0.15298,-0.0541 -0.0779,0.0291 0.37143,0.41187 -8.9464,5.69613 -10.17367,5.76961 -0.2434,0.0146 -0.40867,0.0814 -0.36727,0.14845 0.12256,0.19854 -3.82367,1.76877 -4.45411,1.77232 -0.3184,0.002 -0.45021,0.0462 -0.29292,0.0986 0.42806,0.14268 -1.63814,0.79086 -2.15693,0.67664 -0.30875,-0.068 -0.36757,-0.043 -0.19243,0.0818 0.31471,0.22417 -1.76122,0.8569 -2.22611,0.67851 -0.18511,-0.071 -0.25961,-0.0392 -0.18619,0.0796 0.29026,0.46964 -7.23468,2.06315 -12.69854,2.68908 -3.72446,0.42668 -16.479958,0.49237 -20.165234,0.10386 -4.284537,-0.45169 -7.500669,-1.00311 -9.70863,-1.66459 -1.187421,-0.35573 -3.027307,-0.88086 -4.088635,-1.16694 -4.998098,-1.34723 -10.643547,-3.39908 -10.406681,-3.78234 0.05659,-0.0916 -0.01136,-0.12265 -0.151,-0.0691 -0.139645,0.0536 -1.034223,-0.30391 -1.987952,-0.79444 -1.732672,-0.89117 -5.303975,-2.96682 -5.303975,-3.08269 0,-0.0337 0.100253,-0.12328 0.222784,-0.19901 0.146062,-0.0903 0.170039,-0.0523 0.06962,0.11013 -0.102731,0.16623 -0.06489,0.21575 0.114911,0.15042 0.147439,-0.0536 0.244211,-0.20154 0.215048,-0.32883 -0.02916,-0.12728 0.03217,-0.17878 0.136299,-0.11442 0.104127,0.0644 0.133438,0.26619 0.06514,0.44852 -0.103569,0.27648 -0.07551,0.29201 0.168986,0.0936 0.235498,-0.19114 0.365982,-0.17883 0.663278,0.0625 0.203558,0.16527 0.261561,0.24551 0.128895,0.17831 -0.143927,-0.0729 -0.241211,0.004 -0.241211,0.19005 0,0.17172 0.08684,0.25856 0.192969,0.19296 0.106132,-0.0656 0.192968,-0.0222 0.192968,0.0965 0,0.11866 0.08684,0.16208 0.192969,0.0965 0.106133,-0.0656 0.192969,-0.0273 0.192969,0.0851 0,0.11239 0.06513,0.19407 0.144726,0.1815 0.384639,-0.0607 0.63792,0.0423 0.530664,0.21582 -0.06559,0.10614 0.01612,0.19297 0.181581,0.19297 0.165463,0 0.302171,0.10855 0.303796,0.24121 0.002,0.16081 0.06531,0.14473 0.190014,-0.0482 0.158601,-0.24542 0.187508,-0.23634 0.190014,0.0596 0.0016,0.192 0.08979,0.29542 0.195923,0.22983 0.106133,-0.0656 0.192969,-0.0222 0.192969,0.0965 0,0.11866 0.08684,0.16208 0.192969,0.0965 0.106133,-0.0656 0.192969,-0.03 0.192969,0.079 0,0.10907 0.144499,0.14285 0.321108,0.0751 0.230329,-0.0884 0.2774,-0.0525 0.1665,0.12695 -0.118319,0.19144 -0.07513,0.20568 0.183986,0.0607 0.257992,-0.14438 0.849984,0.0417 2.486821,0.78167 1.181524,0.53414 2.175544,1.03773 2.208934,1.11909 0.03339,0.0814 0.199599,0.0946 0.369351,0.0295 0.221602,-0.085 0.264097,-0.0464 0.150686,0.13714 -0.09633,0.15586 -0.08274,0.20908 0.03484,0.13642 0.106038,-0.0655 0.657949,0.0576 1.22647,0.27361 0.896498,0.34064 7.209817,2.21305 10.990363,3.25953 5.369539,1.48632 18.738878,2.14469 27.305398,1.34465 14.3211,-1.33747 26.32102,-6.0144 38.01452,-14.81604 14.12311,-10.63039 24.51069,-25.22903 28.83055,-40.5183 1.59463,-5.64389 2.31789,-10.51583 2.46983,-16.63705 0.20054,-8.07884 -0.6184,-14.90347 -2.68084,-22.34085 -0.80382,-2.89865 -0.98379,-3.61354 -1.359,-5.39841 -0.11713,-0.55719 -0.27953,-1.01308 -0.36089,-1.01308 -0.0814,0 -0.1073,-0.22405 -0.0576,-0.49788 0.0567,-0.31255 0.016,-0.45197 -0.10926,-0.37455 -0.12772,0.0789 -0.20061,-0.24543 -0.2025,-0.90114 -0.006,-2.21346 -0.32584,-1.36963 -0.643,1.69847 -0.19011,1.83906 -0.49012,3.65942 -0.70286,4.26469 -0.21129,0.60115 -0.32492,1.28724 -0.26381,1.59279 0.0814,0.40675 0.007,0.60698 -0.30662,0.82671 -0.22768,0.15947 -0.67908,0.71318 -1.00311,1.23047 -0.75439,1.20432 -1.71533,2.21362 -1.96226,2.061 -0.10571,-0.0653 -0.13897,-0.0326 -0.0739,0.0726 0.17643,0.28547 -1.32438,1.68028 -1.61482,1.50078 -0.15086,-0.0932 -0.19137,-0.0694 -0.10891,0.064 0.15759,0.255 -1.20878,1.23354 -1.4845,1.06314 -0.1048,-0.0648 -0.13276,-0.0243 -0.0621,0.09 0.16952,0.27429 -2.68021,2.053 -2.9862,1.86388 -0.14667,-0.0906 -0.17876,-0.0595 -0.0888,0.0861 0.33268,0.53828 -8.20167,4.18894 -13.34014,5.7064 -8.06458,2.38157 -11.92058,3.16957 -16.26537,3.32393 -1.85733,0.066 -3.55063,0.1956 -3.76289,0.28802 -0.69292,0.30171 14.77104,0.028 17.54782,-0.31062 4.867,-0.59347 9.73519,-1.7929 14.05804,-3.46364 3.88534,-1.50166 5.84152,-2.6946 7.63323,-4.65502 1.12527,-1.23122 1.1342,-1.21816 0.79435,1.16167 -0.34595,2.42255 -1.43942,4.05456 -3.78247,5.64532 -0.62186,0.4222 -1.73469,0.98484 -2.47294,1.2503 -1.58101,0.56851 -1.96381,1.03937 -0.66685,0.82025 2.72111,-0.45973 7.15712,-2.84604 9.12413,-4.90825 l 1.10125,-1.15454 -0.1323,0.71721 c -0.14638,0.79354 -1.86973,2.96058 -3.23333,4.06578 -1.61505,1.30899 -7.15777,3.67521 -8.0577,3.43987 -0.19985,-0.0523 -0.32044,-0.0255 -0.26796,0.0594 0.13534,0.21898 -0.81824,0.42688 -1.31735,0.28719 -0.27337,-0.0765 -0.33282,-0.0576 -0.17199,0.0547 0.27521,0.19212 -2.77935,0.88946 -5.29435,1.20866 -6.34563,0.80539 -15.52454,0.5572 -22.36082,-0.60463 -2.08679,-0.35465 -4.12656,-0.4356 -3.36912,-0.1337 0.71329,0.2843 4.63889,1.44128 7.81523,2.30336 4.13383,1.12195 5.86662,1.43794 9.42242,1.71827 4.84372,0.38187 16.07035,-0.39528 19.36659,-1.34063 0.53082,-0.15224 0.59759,-0.13275 0.49548,0.14466 -0.76263,2.07181 -4.67125,5.48701 -5.88814,5.14483 -0.30186,-0.0849 -0.35377,-0.0668 -0.17133,0.0597 0.1893,0.13124 -0.0243,0.25488 -0.77188,0.44683 -1.39268,0.35757 -9.43637,0.35839 -11.83986,0.001 -3.10974,-0.46215 -8.37573,-1.66036 -11.6746,-2.65642 -1.95317,-0.58973 -5.48662,-2.0395 -5.78921,-2.3753 -0.0531,-0.059 -0.35708,-0.24598 -0.67539,-0.41556 -0.31832,-0.16959 -0.92081,-0.51348 -1.33886,-0.76421 -1.28227,-0.76905 -0.60003,-0.11309 0.89524,0.86076 7.32963,4.77368 12.90039,7.33069 18.29337,8.39676 4.68533,0.92619 10.54412,1.25037 13.06159,0.72274 1.44603,-0.30306 1.43266,-0.24372 -0.36318,1.61237 -2.45203,2.53428 -3.83307,3.10546 -7.48825,3.09703 -5.01244,-0.0116 -9.96845,-1.08544 -14.76211,-3.19868 -3.20409,-1.41248 -7.85566,-4.00008 -8.22275,-4.57419 -0.0649,-0.10155 -0.15281,-0.15551 -0.19529,-0.11991 -0.13122,0.10998 -3.22149,-2.12635 -4.34791,-3.14644 -1.06605,-0.96542 -1.46324,-1.12208 -1.01169,-0.39905 0.35801,0.57328 4.72666,4.85539 6.09413,5.97342 0.65618,0.53649 1.13377,1.04918 1.06133,1.13931 -0.0725,0.0901 -0.0556,0.10223 0.0375,0.0269 0.0931,-0.0754 0.7009,0.24027 1.35078,0.7014 3.30884,2.34786 12.98003,6.10705 18.16284,7.0599 3.11545,0.57276 3.00147,0.5207 2.32686,1.06269 -0.31222,0.25084 -0.65956,0.40391 -0.77187,0.34014 -0.11231,-0.0638 -0.13859,-0.0436 -0.0584,0.0447 0.19164,0.21117 -1.42236,1.28052 -1.74782,1.15802 -0.13818,-0.052 -0.2038,-0.0178 -0.14583,0.076 0.13557,0.21937 -0.44156,0.4451 -0.71149,0.27827 -0.11788,-0.0728 -0.14913,-0.0359 -0.0734,0.0867 0.22937,0.37112 -1.78926,0.85825 -3.95349,0.95405 -2.37498,0.10514 -4.3912,-0.3039 -6.40618,-1.29965 -2.13507,-1.05509 -7.87575,-5.38438 -10.50509,-7.92235 -0.45107,-0.43539 -0.82012,-0.70708 -0.82012,-0.60376 0,0.26411 3.5819,3.64116 5.88554,5.54893 1.06133,0.87895 3.15483,2.46622 4.65221,3.52726 2.10401,1.49088 3.10386,2.35665 4.40102,3.8108 1.33462,1.49615 1.61891,1.91497 1.38767,2.04438 -0.54328,0.30403 -3.48836,0.56763 -4.8448,0.43364 -3.24551,-0.32061 -5.32549,-1.5564 -9.71793,-5.77374 -2.9182,-2.80187 -5.44147,-6.15591 -6.7417,-8.96136 -0.95438,-2.05923 -0.98879,-1.40563 -0.0517,0.98186 1.5924,4.05706 3.60777,6.88252 7.56224,10.60193 2.25573,2.12164 2.51514,2.43511 2.78589,3.36645 0.35357,1.21623 0.10344,2.71558 -0.41954,2.5149 -0.15823,-0.0607 -0.23897,-0.0316 -0.17941,0.0648 0.0596,0.0964 -0.21183,0.28086 -0.60308,0.40998 -1.71488,0.56596 -6.46217,-0.36453 -9.42305,-1.84695 -3.39209,-1.69832 -4.96683,-3.85759 -5.97886,-8.19812 -0.28457,-1.22053 -0.58822,-2.47965 -0.67477,-2.79805 l -0.15736,-0.57891 -0.0197,0.55415 c -0.0644,1.81116 1.07095,7.06347 2.1083,9.75339 0.69402,1.79966 2.4754,4.56272 3.8245,5.93212 0.60151,0.61055 0.88828,1.03047 0.74205,1.08658 -0.13108,0.0503 -1.04294,0.20141 -2.02637,0.3358 -2.10848,0.28814 -2.84311,0.13636 -4.42725,-0.91469 -1.90499,-1.26393 -3.26949,-3.2937 -4.67493,-6.95418 -0.33618,-0.8756 -0.7036,-1.59199 -0.81648,-1.59199 -0.1378,0 -0.17062,0.58645 -0.0999,1.78496 0.15033,2.54659 1.41194,6.05074 2.75173,7.643 0.47954,0.5699 0.48672,0.60641 0.11915,0.60641 -0.57836,0 -2.75901,-0.5298 -3.56256,-0.86555 -1.30319,-0.54451 -1.33197,-0.4478 -0.59389,1.99546 0.97155,3.21614 3.32268,7.0356 5.44573,8.84668 0.52261,0.44581 1.82765,1.37998 2.9001,2.07592 2.13771,1.38722 2.98204,2.30224 4.25902,4.61556 0.92994,1.68463 0.97756,1.9364 0.3086,1.63161 -0.262,-0.11938 -0.42226,-0.30461 -0.35612,-0.41162 0.0672,-0.10876 0.0244,-0.13531 -0.0972,-0.0602 -0.11957,0.0739 -0.57945,-0.0316 -1.02195,-0.23446 -0.44249,-0.20285 -0.72712,-0.40934 -0.63251,-0.45886 0.0946,-0.0495 0.0571,-0.0611 -0.0833,-0.0258 -0.39786,0.10006 -2.90751,-1.12899 -4.50106,-2.20431 -1.6591,-1.11954 -3.14476,-2.66596 -4.35763,-4.53583 -1.12209,-1.72991 -2.92421,-5.47925 -3.52548,-7.33482 -0.26533,-0.81884 -0.56045,-1.48906 -0.65581,-1.48939 -0.3711,-0.001 0.0743,3.23303 0.77012,5.59191 1.06153,3.59883 2.13738,5.98911 4.57977,10.17519 l 1.37484,2.35636 1.08948,-0.11387 c 0.9572,-0.10005 1.14204,-0.0613 1.52237,0.31902 0.36849,0.36849 0.42017,0.58627 0.34739,1.46392 -0.098,1.18228 -0.99585,3.10621 -1.95002,4.17872 l -0.62131,0.69837 -0.35147,-0.84977 c -0.19331,-0.46738 -1.09738,-2.00202 -2.00904,-3.41031 -2.95951,-4.57169 -5.27223,-10.14026 -6.4964,-15.64206 -0.26424,-1.18759 -0.40137,-0.23616 -0.26322,1.82628 0.39366,5.87672 1.015,8.85557 2.95142,14.14978 0.38819,1.06133 0.83941,2.29752 1.0027,2.7471 0.50174,1.38138 0.26575,1.93279 -1.5155,3.54118 -0.86176,0.77812 -1.71556,1.65932 -1.89733,1.95822 l -0.33049,0.54345 -0.61938,-1.38521 c -1.18512,-2.65047 -2.06832,-6.65841 -2.80111,-12.71138 -0.27625,-2.28186 -0.63111,-5.19086 -0.78857,-6.46445 -0.31509,-2.54848 -0.34813,-3.70841 -0.15115,-5.30664 0.10157,-0.82413 0.15795,-0.95351 0.25228,-0.57891 0.0949,0.37703 0.3156,-0.11558 1.01012,-2.25497 1.25046,-3.85196 2.51773,-6.4358 6.60749,-13.47198 1.58752,-2.73122 2.88442,-5.57414 3.8999,-8.54891 0.48193,-1.41178 0.84447,-2.59863 0.80564,-2.63746 -0.0944,-0.0944 -4.70272,3.98955 -6.59736,5.84678 -2.5826,2.53161 -4.55533,5.87279 -6.00101,10.16381 -0.44451,1.31938 -0.69752,2.59683 -1.39502,7.04336 l -0.10594,0.67539 -0.74705,-1.44727 c -1.050099,-2.0344 -1.299232,-3.00861 -1.533755,-5.99769 -0.247747,-3.15762 0.0021,-7.2431 0.583296,-9.53629 0.482749,-1.9049 1.596629,-4.25718 2.741289,-5.78907 0.47583,-0.63679 1.75515,-2.14562 2.84293,-3.35294 3.29331,-3.65523 4.51893,-5.56495 5.40258,-8.41815 0.62017,-2.00246 1.30765,-7.21682 0.78869,-5.98203 -0.0892,0.21227 -0.29119,1.08063 -0.44883,1.92969 -0.72621,3.91127 -2.50178,6.56225 -6.31532,9.42894 -0.65441,0.49193 -1.28162,0.83769 -1.39381,0.76835 -0.11219,-0.0693 -0.14815,-0.0357 -0.0799,0.0746 0.13012,0.21053 -2.49914,2.23886 -2.90215,2.23886 -0.12804,0 -0.1946,0.0618 -0.14792,0.13733 0.0467,0.0755 -0.367389,0.56036 -0.920152,1.07741 -0.552765,0.51704 -0.983779,0.9627 -0.957809,0.99035 0.02597,0.0276 -0.105565,0.33157 -0.292299,0.67539 -0.186734,0.34382 -0.495142,0.97247 -0.685351,1.397 l -0.345836,0.77187 0.106738,-2.04521 c 0.203763,-3.90433 1.020324,-5.86752 4.405239,-10.59113 1.68132,-2.34626 2.90039,-4.84578 3.43671,-7.04647 0.3589,-1.47268 0.4215,-2.2648 0.41176,-5.21015 -0.029,-8.76653 -1.02217,-13.59828 -3.56406,-17.33899 -0.9405,-1.38408 -9.277368,-9.58967 -9.508378,-9.35866 -0.04499,0.045 1.828655,1.93487 4.16365,4.19974 5.099778,4.94663 5.937768,6.06941 7.006628,9.38793 1.15767,3.59422 1.58764,8.52552 1.00007,11.46974 -0.75119,3.76412 -3.2045,7.34591 -7.165655,10.46175 -0.260315,0.20477 -0.578241,0.30716 -0.712916,0.22962 -0.133691,-0.077 -0.184898,-0.0751 -0.113793,0.004 0.0711,0.0793 -0.532836,0.67935 -1.342091,1.33348 -1.928914,1.55918 -2.550081,2.68121 -2.550081,4.60626 0,1.74069 0.606259,4.69107 1.44771,7.04535 0.366464,1.02532 0.634865,1.89565 0.596449,1.93407 -0.03842,0.0384 -0.162208,-0.1951 -0.275091,-0.51891 -0.222952,-0.63956 -0.322066,-0.70759 -0.533198,-0.36597 -0.09027,0.14606 -0.05235,0.17003 0.110131,0.0696 0.165967,-0.10257 0.216294,-0.0646 0.152375,0.11491 -0.05249,0.14744 -0.01729,0.42004 0.07824,0.60577 0.09553,0.18573 0.128301,0.33769 0.07283,0.33769 -0.21699,0 -1.461515,-2.73027 -1.336631,-2.93233 0.07514,-0.12159 0.04587,-0.1611 -0.06746,-0.0911 -0.238836,0.14761 -0.930543,-1.63562 -1.222493,-3.15161 -0.112416,-0.58373 -0.204501,-1.9731 -0.204634,-3.0875 -2.63e-4,-2.20064 0.468963,-4.19713 1.434032,-6.1016 0.720459,-1.42176 1.150474,-3.06104 0.994518,-3.79126 -0.223102,-1.0446 -1.089364,-2.65112 -1.422816,-2.63866 -0.353898,0.0132 -2.712198,2.80497 -3.48,4.11963 -0.286142,0.48994 -0.560597,0.85047 -0.6099,0.80116 -0.0493,-0.0493 -0.09644,0.0582 -0.104748,0.23887 -0.0083,0.18068 -0.15717,0.84606 -0.330803,1.47862 -0.173634,0.63256 -0.315698,1.34896 -0.315698,1.59199 0,0.24303 -0.08684,0.44188 -0.192969,0.44188 -0.106132,0 -0.192968,-0.43931 -0.192968,-0.97623 0,-0.53693 0.06513,-0.93612 0.144726,-0.88709 0.0796,0.049 0.147955,-0.40173 0.151902,-1.0017 0.01053,-1.60125 0.75026,-3.63537 2.210452,-6.07835 2.327662,-3.89429 2.535436,-5.04695 2.146966,-11.91065 -0.203564,-3.59668 -0.691519,-6.52158 -1.167367,-6.99743 -0.09593,-0.0959 0.0083,0.59562 0.231723,1.53676 0.335276,1.41261 0.408257,2.35088 0.418282,5.37758 0.01137,3.43253 -0.01631,3.72927 -0.433961,4.65197 -0.520528,1.14999 -1.811381,2.50973 -2.17137,2.28724 -0.144907,-0.0896 -0.191351,-0.0694 -0.117068,0.0508 0.06772,0.10958 -0.222785,0.42815 -0.645576,0.70794 -0.42279,0.27979 -0.768709,0.46651 -0.768709,0.41494 0,-0.35759 -2.302717,2.15711 -2.907585,3.17525 -1.80056,3.03079 -2.202962,8.45354 -0.960469,12.94324 0.940754,3.39937 2.384361,5.77584 5.438385,8.95267 1.14773,1.19388 2.023746,2.23373 1.946702,2.31077 -0.07704,0.077 -0.0098,0.11114 0.149373,0.0758 0.160247,-0.0356 0.265784,0.0497 0.23643,0.19123 -0.02916,0.14056 0.03002,0.20423 0.131523,0.1415 0.23546,-0.14552 0.812986,0.66371 0.655512,0.91851 -0.06504,0.10523 -0.02562,0.13409 0.08759,0.0641 0.41122,-0.25415 3.203595,3.90767 2.991935,4.45925 -0.08354,0.21769 -0.0435,0.25795 0.142322,0.1431 0.188108,-0.11626 0.225515,-0.0737 0.137292,0.15621 -0.07246,0.18882 0.002,0.38498 0.184956,0.48737 0.168421,0.0943 0.228695,0.21928 0.133944,0.27784 -0.09475,0.0586 -0.73527,-0.68923 -1.423374,-1.66177 -0.688103,-0.97253 -1.837207,-2.38594 -2.553563,-3.14091 -1.355243,-1.42829 -5.296444,-4.63658 -5.47564,-4.45738 -0.243248,0.24325 2.583273,5.5039 4.480305,8.33864 3.631776,5.42697 5.913202,8.63746 7.40484,10.42031 2.915062,3.48419 3.413522,4.28234 3.585022,5.74052 0.2586,2.19873 1.07796,7.20456 1.22398,7.47784 0.0851,0.1592 0.0983,3.67605 0.0295,7.81523 l -0.12514,7.52579 -0.63495,1.49515 c -0.34923,0.82234 -0.71376,1.54386 -0.81007,1.60338 -0.28047,0.17335 -0.20472,-2.70773 0.21084,-8.01924 0.40927,-5.23114 0.50216,-9.45547 0.20793,-9.45547 -0.4707,0 -0.99533,3.77298 -1.36843,9.84141 -0.203219,3.30539 -0.497329,4.95835 -1.005853,5.65328 -0.231521,0.31638 -0.328313,0.24077 -1.109101,-0.86638 -1.165902,-1.65325 -1.194512,-2.29847 -0.319222,-7.19901 0.37913,-2.12266 0.818237,-5.1185 0.975793,-6.65742 0.706564,-6.90132 0.585179,-8.81479 -0.280446,-4.42091 -1.308977,6.64431 -5.526647,16.99099 -7.741965,18.9924 -0.39083,0.35309 -0.67539,0.69311 -0.632356,0.7556 0.04303,0.0625 -0.01195,0.0394 -0.122187,-0.0514 -0.410459,-0.33801 -1.191929,-3.04748 -1.287118,-4.46263 -0.115328,-1.71454 0.143677,-2.83369 0.826249,-3.5702 0.388805,-0.41953 0.609783,-0.50952 1.039912,-0.42349 0.755496,0.15109 1.01908,-0.1964 2.120638,-2.79571 1.747022,-4.1224 3.110434,-9.09658 3.475401,-12.67943 0.309427,-3.03762 0.237044,-3.21562 -0.364418,-0.89615 -1.020307,3.93469 -2.42753,7.2641 -4.081552,9.65673 -1.183105,1.71142 -2.560623,3.0079 -3.035102,2.85655 -0.250522,-0.0799 -0.264463,-0.061 -0.06175,0.0838 0.320527,0.229 -0.04591,0.52485 -0.388112,0.31335 -0.135501,-0.0837 -0.170504,-0.0531 -0.08934,0.0782 0.205424,0.33238 -1.695463,1.22414 -2.341756,1.09858 -0.40374,-0.0784 -0.440165,-0.0639 -0.152805,0.0611 0.295806,0.12866 0.04573,0.25113 -1.157813,0.567 -0.84431,0.2216 -1.839035,0.45974 -2.2105,0.5292 l -0.67539,0.12631 0.746541,-0.72411 c 0.410597,-0.39826 1.120338,-1.30727 1.5772,-2.02002 0.908295,-1.41704 1.492216,-1.92325 3.33075,-2.88751 1.596378,-0.83725 2.940431,-2.32924 3.880755,-4.3079 1.123376,-2.36383 1.870702,-4.91627 1.773872,-6.05853 -0.01255,-0.14805 -0.309859,-0.24121 -0.769751,-0.24121 H 91.30926 l 0.294161,-0.82012 c 0.393115,-1.096 0.545378,-4.8071 0.243086,-5.92471 l -0.232418,-0.85928 -0.361138,1.02548 c -0.648123,1.84041 -1.183824,2.74376 -1.960916,3.30669 -0.757505,0.54873 -2.794701,1.27104 -3.001523,1.06422 -0.05935,-0.0593 -0.01637,-0.10791 0.09551,-0.10791 0.290685,0 1.112128,-2.07111 1.776026,-4.4779 0.537496,-1.94855 0.81477,-3.55629 1.074311,-6.22926 0.167285,-1.72285 -0.223131,-1.09978 -0.574918,0.91752 -0.160972,0.92307 -0.504119,2.24007 -0.76255,2.92666 -0.8377,2.22556 -3.413699,5.56507 -4.008957,5.19718 -0.119129,-0.0736 -0.156707,-0.0423 -0.08618,0.0718 0.12764,0.20653 -0.789093,0.64173 -2.381043,1.13035 -1.686647,0.51768 -4.627525,0.21087 -4.634204,-0.48347 -0.0026,-0.26878 -0.02632,-0.271 -0.190014,-0.0177 -0.102883,0.1592 -0.188389,0.19544 -0.190014,0.0805 -0.0016,-0.11491 0.333567,-0.47935 0.744871,-0.80989 1.719229,-1.38161 3.537518,-4.43794 4.617382,-7.76128 0.64984,-1.99991 1.865782,-6.45659 2.049465,-7.51171 0.20719,-1.19014 -0.136456,-0.43826 -0.79753,1.74497 -0.757275,2.50094 -1.096768,3.21697 -2.167498,4.57155 -0.934906,1.18274 -2.663624,2.59922 -2.953521,2.42006 -0.11659,-0.0721 -0.148717,-0.0357 -0.07451,0.0844 0.148617,0.24047 -1.656638,1.35573 -3.324927,2.05409 -3.144735,1.31642 -5.553268,1.61606 -7.073719,0.88002 -0.992599,-0.48051 -1.336943,-1.08184 -1.200789,-2.09695 0.21085,-1.572 0.994827,-2.81541 3.292661,-5.22221 2.971182,-3.11209 5.548427,-6.6315 7.074078,-9.66016 0.553839,-1.09946 0.449237,-0.99659 -0.686737,0.67539 -1.619014,2.38293 -2.989369,4.13133 -4.496325,5.73674 -2.365886,2.52046 -5.473792,4.81895 -6.04151,4.46808 -0.128847,-0.0796 -0.162442,-0.0467 -0.08317,0.0816 0.08606,0.13924 -0.363147,0.36808 -1.272723,0.64837 -1.10539,0.34062 -1.859227,0.43157 -3.528378,0.4257 -2.292183,-0.008 -4.341797,-0.44545 -4.341797,-0.92655 0,-0.49279 1.90735,-2.51727 3.103512,-3.2941 5.985555,-3.88724 9.881593,-6.75917 12.070952,-8.89798 1.22537,-1.19707 1.29127,-1.39776 0.09928,-0.30232 -0.729279,0.6702 -4.429137,3.37693 -6.590148,4.8212 -5.158313,3.44744 -8.375452,4.56721 -11.769271,4.09646 -1.86916,-0.25927 -3.876614,-1.03207 -5.637703,-2.17031 l -1.209153,-0.78152 1.830524,-0.46849 c 5.560285,-1.42308 11.25931,-3.33006 14.612747,-4.88967 1.77126,-0.82377 4.323484,-2.43118 6.225199,-3.92068 2.892746,-2.26571 8.003409,-6.85268 7.829178,-7.02691 -0.05037,-0.0504 -1.02931,0.65562 -2.17542,1.56888 -2.370416,1.88881 -4.241483,3.07224 -4.565058,2.88733 -0.121188,-0.0693 -0.152073,-0.051 -0.06863,0.0406 0.27724,0.30439 -4.525847,2.91189 -4.917693,2.66972 -0.120283,-0.0743 -0.160605,-0.0455 -0.09188,0.0657 0.136516,0.22089 -0.713036,0.61864 -4.99568,2.33894 -4.38483,1.76134 -7.945934,2.62828 -11.738988,2.8578 -3.50971,0.21239 -5.167295,-0.40177 -7.620155,-2.82334 l -1.469338,-1.45059 3.087499,-0.12534 c 5.740673,-0.23305 13.167071,-1.769 18.610502,-3.84909 3.736203,-1.42771 12.708303,-6.45234 12.282239,-6.87841 -0.05769,-0.0577 -0.215543,-0.0149 -0.350774,0.095 -0.979707,0.79658 -6.198348,3.03224 -6.662402,2.85416 -0.143516,-0.0551 -0.207886,-0.0143 -0.143043,0.0906 0.06484,0.10492 0.08094,0.19076 0.03577,0.19076 -0.04517,0 -1.41796,0.37983 -3.050646,0.84407 -2.770577,0.78779 -7.626546,1.88091 -10.976723,2.47095 -0.962765,0.16957 -3.094567,0.25062 -6.367969,0.24211 -4.402178,-0.0114 -5.077206,-0.0561 -6.405896,-0.42365 -2.264417,-0.62641 -3.600855,-1.33774 -4.786291,-2.54754 -1.062941,-1.08479 -1.917546,-2.39912 -1.700855,-2.61581 0.06348,-0.0635 1.014869,0.0198 2.114193,0.18506 5.008098,0.75288 18.656764,0.87781 22.839396,0.20904 4.439089,-0.70977 13.548552,-3.11555 13.182613,-3.48149 -0.03784,-0.0378 -1.558653,0.13875 -3.379586,0.39242 -4.698854,0.65459 -7.263564,0.86264 -12.215137,0.99088 -12.378724,0.3206 -20.1154,-1.40743 -23.518624,-5.253 -0.462849,-0.52301 -0.931944,-1.14631 -1.042434,-1.38511 -0.401348,-0.86743 -0.524878,-0.38651 -0.524878,2.04342 0,8.09404 2.060105,18.44057 5.308427,26.66068 1.653241,4.18364 5.382884,11.06082 8.154436,15.03617 4.568219,6.55236 14.017484,15.85135 20.116329,19.79639 4.059769,2.62607 8.421053,4.78418 12.636822,6.25314 0.955195,0.33284 1.866972,0.65953 2.026171,0.72598 0.1592,0.0665 0.376289,0.1423 0.482422,0.16855 0.106133,0.0263 1.01791,0.31135 2.026172,0.63356 1.795063,0.57364 6.221406,1.78877 7.491337,2.05654 0.352521,0.0743 0.602957,0.17313 0.556526,0.21957 -0.04643,0.0464 -1.072964,-0.1339 -2.281181,-0.40072 -5.935117,-1.31073 -12.958617,-3.69817 -17.376037,-5.90651 -2.416865,-1.20823 -5.778067,-3.2735 -5.654078,-3.47412 0.06009,-0.0972 -0.02477,-0.12535 -0.188589,-0.0625 -0.175221,0.0672 -0.346567,-0.0127 -0.41618,-0.19407 -0.06508,-0.1696 -0.17803,-0.27147 -0.250996,-0.22638 -0.193433,0.11955 -2.342235,-1.50033 -4.965666,-3.74338 -3.18098,-2.71975 -9.371558,-8.89322 -9.245994,-9.22044 0.05536,-0.14427 0.0228,-0.21418 -0.07237,-0.15537 -0.09516,0.0588 -0.728281,-0.52282 -1.406925,-1.29251 -5.846963,-6.63147 -11.553358,-17.22807 -14.210738,-26.38891 -1.842946,-6.35323 -3.113088,-14.94757 -3.115043,-21.07777 -6.72e-4,-2.10685 -0.06941,-2.66074 -0.483205,-3.8934 -0.77416,-2.30618 -0.637814,-2.51763 0.833739,-1.29298 1.176168,0.97882 2.370364,1.5629 5.172053,2.52961 4.051623,1.39801 7.605546,2.22067 12.80866,2.96495 2.747542,0.39303 4.272098,0.4838 10.130859,0.60324 2.759453,0.0563 6.124345,0.15035 7.477539,0.2091 1.652715,0.0718 2.460351,0.0405 2.460351,-0.0951 0,-0.28618 -0.430804,-0.34344 -4.396658,-0.58433 -5.547869,-0.33699 -11.441536,-1.52483 -20.279802,-4.08728 -5.720391,-1.6585 -11.721069,-4.67063 -14.022856,-7.039 -1.549533,-1.59435 -2.665785,-4.19983 -3.066315,-7.15719 l -0.10955,-0.80887 1.3006,1.26898 c 2.750704,2.68383 9.172862,6.43817 14.731319,8.6118 4.584302,1.79269 10.561648,3.47596 15.133497,4.26171 2.388486,0.41051 5.499609,0.48725 5.499609,0.13566 0,-0.25796 -1.198995,-0.68949 -4.273156,-1.53795 -3.03609,-0.83795 -8.396922,-2.45138 -10.971374,-3.30203 -8.121598,-2.68351 -16.722976,-7.80651 -19.29205,-11.49038 -0.846831,-1.21429 -1.352289,-3.20502 -1.376265,-5.42038 l -0.02066,-1.90888 -0.34413,1.93459 c -0.18927,1.06403 -0.653616,3.10467 -1.031879,4.53477 -1.736195,6.56401 -2.296236,11.03268 -2.32105,18.52009 -0.01725,5.20402 0.137367,7.345 0.87097,12.06054 1.233463,7.92861 3.808175,16.18682 7.184681,23.04437 0.592634,1.20362 1.022556,2.27732 0.955383,2.38601 -0.06717,0.10869 -0.03098,0.14128 0.08043,0.0724 0.11141,-0.0689 0.254086,0.009 0.317058,0.17318 0.06556,0.17085 0.03297,0.24798 -0.07627,0.18047 -0.104917,-0.0648 -0.190758,-0.0803 -0.190758,-0.0343 0,0.19633 1.014115,1.87657 1.203108,1.99338 0.133003,0.0822 0.15189,0.031 0.05269,-0.14291 -0.527116,-0.92402 0.392157,0.40137 1.35119,1.94812 0.625153,1.00826 1.903872,2.94366 2.841597,4.30089 0.937726,1.35723 1.645038,2.56464 1.571805,2.68314 -0.07581,0.12266 -0.04646,0.16186 0.06816,0.091 0.184193,-0.11384 1.209097,1.01625 1.209097,1.33318 0,0.075 0.151963,0.26089 0.337695,0.41312 0.185733,0.15224 0.229151,0.22181 0.09649,0.15461 -0.132666,-0.0672 -0.241211,-0.0353 -0.241211,0.0708 0,0.21544 0.379438,0.49771 0.675136,0.50224 0.105992,0.002 0.201311,0.13321 0.211819,0.29241 0.04495,0.68101 0.09603,0.77188 0.433918,0.77188 0.195816,0 0.521451,0.1886 0.723633,0.4191 0.202182,0.23051 0.259058,0.35564 0.126392,0.27807 -0.270702,-0.15829 -0.293713,-0.0937 -0.124081,0.34837 0.06442,0.16788 0.1998,0.30524 0.300841,0.30524 0.101042,0 0.123398,-0.10855 0.04968,-0.24121 -0.07372,-0.13267 0.105855,-0.0111 0.399049,0.27009 0.487639,0.46773 0.509099,0.54555 0.251748,0.91297 -0.28041,0.40034 -0.283091,0.39982 -0.817454,-0.15793 -0.294867,-0.30778 -0.476764,-0.65564 -0.404215,-0.77302 0.0745,-0.12055 0.02069,-0.19036 -0.123647,-0.16041 -0.140554,0.0292 -0.231693,-0.062 -0.202531,-0.20253 0.02916,-0.14056 -0.0235,-0.20826 -0.117032,-0.15045 -0.09353,0.0578 -0.447119,-0.23967 -0.78575,-0.66105 -0.426816,-0.53112 -0.527601,-0.76615 -0.328535,-0.76615 0.157937,0 0.335821,-0.0787 0.395297,-0.17497 0.05948,-0.0962 -0.06612,-0.12941 -0.279092,-0.0737 -0.423926,0.11086 -1.023129,-0.27154 -0.854085,-0.54506 0.05816,-0.0941 0.02422,-0.1711 -0.07543,-0.1711 -0.09964,0 -0.551478,-0.49047 -1.004073,-1.08993 -0.452594,-0.59945 -0.711349,-1.02098 -0.575011,-0.93672 0.136339,0.0843 -0.110818,-0.21641 -0.549237,-0.66818 -0.43842,-0.45176 -0.749406,-0.89859 -0.691082,-0.99296 0.05832,-0.0944 0.02292,-0.17159 -0.07868,-0.17159 -0.1016,0 -0.805284,-0.87932 -1.563743,-1.95404 -6.704276,-9.49985 -11.73787,-23.13588 -13.240228,-35.86783 -0.169068,-1.43279 -0.356213,-4.65256 -0.415878,-7.15504 -0.211207,-8.85852 0.756674,-16.62668 2.878114,-23.09959 0.53168,-1.62226 1.08769,-3.07056 1.235579,-3.21845 0.147889,-0.14788 0.268889,-0.40534 0.268889,-0.57212 0,-0.16678 0.0718,-0.30324 0.159548,-0.30324 0.08775,0 0.121781,-0.25732 0.07562,-0.57182 -0.05136,-0.34996 0.02896,-0.68472 0.207019,-0.86278 0.160019,-0.16002 0.489015,-1.11255 0.7311,-2.11673 l 0.440156,-1.82579 -0.423919,-2.1839 c -0.233155,-1.20114 -0.422508,-2.61374 -0.420784,-3.13909 0.0019,-0.56798 -0.06665,-0.88089 -0.169007,-0.77188 -0.18508,0.1971 -2.143484,5.03535 -2.143484,5.2955 0,0.086 -0.788415,2.05367 -1.752034,4.37252 -4.234215,10.18919 -5.792424,16.85992 -6.033275,25.82858 -0.182555,6.7979 0.783237,15.16459 2.577365,22.3278 0.312318,1.24696 0.511666,2.41361 0.442995,2.59256 -0.0911,0.23741 -0.0556,0.28257 0.131303,0.16706 0.191564,-0.1184 0.229154,-0.0551 0.149068,0.2512 -0.06291,0.24057 -0.02105,0.39233 0.101468,0.36787 0.281204,-0.0562 1.598132,2.61558 1.881806,3.81773 0.702753,2.97813 4.117662,9.77328 8.312749,16.54112 7.515895,12.12522 15.894345,21.74195 24.581132,28.21406 3.915701,2.9174 8.277798,5.51007 13.610334,8.08947 4.523205,2.18792 7.669146,3.40089 11.103202,4.28103 4.006761,1.02692 10.732488,2.09343 15.61693,2.47641 0.530664,0.0416 4.87246,0.0492 9.64843,0.0168 7.29028,-0.0494 9.19448,-0.12163 11.86758,-0.45001 z m -2.35181,-11.73389 c 0.1393,-0.0557 0.30574,-0.0489 0.36986,0.0152 0.0641,0.0641 -0.0499,0.10973 -0.25327,0.10135 -0.2248,-0.009 -0.27052,-0.055 -0.11659,-0.11659 z m 1.09751,-0.25411 c 0.3184,-0.081 0.75258,-0.14893 0.96485,-0.15091 0.30242,-0.003 0.28154,0.0298 -0.0965,0.15091 -0.26533,0.085 -0.69951,0.15288 -0.96484,0.1509 -0.43333,-0.003 -0.42351,-0.0186 0.0965,-0.1509 z m 2.02618,-0.41104 c 0.37146,-0.1008 1.9624,-0.53031 3.53542,-0.95448 4.57865,-1.23465 9.77244,-3.20398 13.44583,-5.09827 1.22052,-0.6294 2.25285,-1.11841 2.29405,-1.0867 0.0412,0.0317 0.13441,-0.0386 0.20715,-0.1563 0.0727,-0.11769 0.34199,-0.25437 0.59834,-0.30374 0.25636,-0.0494 0.70235,-0.26442 0.99109,-0.4779 0.28874,-0.21347 0.61102,-0.38814 0.71618,-0.38814 0.10516,0 0.26064,-0.1229 0.34551,-0.27311 0.0849,-0.15021 0.89242,-0.737 1.79455,-1.30397 0.90213,-0.56697 2.36571,-1.55123 3.25241,-2.18724 0.8867,-0.63601 1.65122,-1.13086 1.69893,-1.09967 0.0477,0.0312 0.25284,-0.14248 0.45582,-0.38594 0.20298,-0.24345 0.37195,-0.36092 0.37548,-0.26104 0.004,0.0999 0.11497,0.0415 0.24763,-0.12972 0.13267,-0.17123 1.06616,-0.97389 2.07442,-1.7837 5.32389,-4.27599 10.54174,-9.86483 13.73735,-14.7141 0.64526,-0.97917 1.26176,-1.72556 1.37,-1.65866 0.11183,0.0691 0.13806,0.0266 0.0607,-0.0986 -0.0748,-0.1211 0.24568,-0.85091 0.71226,-1.62181 1.9668,-3.24955 4.3197,-8.21098 5.78945,-12.20788 0.62394,-1.69677 1.6938,-5.75214 2.23994,-8.49062 0.92512,-4.63875 1.21835,-8.34651 1.14413,-14.46716 -0.0354,-2.92181 -0.005,-5.31233 0.0683,-5.31226 0.15841,1.5e-4 0.13521,-0.48221 0.2738,5.6927 0.0875,3.89716 0.0435,5.67053 -0.19675,7.94383 -0.91901,8.69452 -2.95814,15.68943 -6.68481,22.93117 -0.85527,1.66199 -1.59109,2.87063 -1.72801,2.8384 -0.14096,-0.0332 -0.19341,0.0612 -0.1283,0.23092 0.23512,0.6127 -5.07067,8.37041 -6.06789,8.87199 -0.23589,0.11865 -0.46872,0.33635 -0.5174,0.48379 -0.0611,0.18505 -0.006,0.21861 0.17773,0.10838 0.64657,-0.38783 -3.16791,3.65422 -5.82533,6.17286 -2.19794,2.08315 -7.70569,6.49687 -7.70569,6.17507 0,-0.0702 -0.15196,0.0464 -0.3377,0.25926 -0.43399,0.49728 -3.52168,2.63049 -3.52168,2.43304 0,-0.0822 -0.10854,-0.004 -0.24121,0.1737 -0.57802,0.77432 -7.87555,4.74673 -11.4334,6.22377 -4.222,1.75276 -12.22336,4.18839 -13.54372,4.12274 -0.19251,-0.01 -0.0461,-0.0999 0.32537,-0.20066 z m 41.89883,-25.0126 c 0.24003,-0.30606 0.2332,-0.31288 -0.0729,-0.0729 -0.18573,0.14566 -0.33769,0.29762 -0.33769,0.33769 0,0.15882 0.15846,0.0566 0.41055,-0.26484 z m -98.342188,20.67782 c -0.232465,-0.17452 -0.360594,-0.45874 -0.322206,-0.71473 0.0593,-0.39548 0.04574,-0.40108 -0.19524,-0.0807 -0.235881,0.31364 -0.293178,0.31769 -0.642637,0.0454 -0.259315,-0.20202 -0.289851,-0.28235 -0.09421,-0.24786 0.1592,0.0281 0.353251,0.13787 0.431225,0.24401 0.08256,0.11238 0.143006,0.068 0.144727,-0.10614 0.0016,-0.1645 -0.10559,-0.41419 -0.238256,-0.55486 -0.132666,-0.14067 0.126417,-0.0172 0.575741,0.27441 0.449323,0.29159 0.770448,0.60541 0.71361,0.69738 -0.05684,0.092 0.02264,0.11886 0.176615,0.0598 0.153976,-0.0591 0.34608,0.007 0.426898,0.14694 0.08082,0.1399 0.07648,0.19058 -0.0096,0.11263 -0.08612,-0.078 -0.252006,-0.0168 -0.368633,0.13583 -0.183982,0.24081 -0.263133,0.2392 -0.597987,-0.0122 z m -4.509463,-3.03893 c -0.118207,-0.14243 -0.150549,-0.33003 -0.07187,-0.41688 0.07868,-0.0868 0.03124,-0.0934 -0.105415,-0.0146 -0.155986,0.09 -0.73058,-0.24927 -1.54375,-0.91139 -1.339233,-1.09047 -3.097157,-2.67557 -2.501337,-2.25543 0.236902,0.16705 0.337695,0.17348 0.337695,0.0215 0,-0.20414 -0.272061,-0.30079 -0.6513,-0.2314 -0.262168,0.048 -0.896278,-0.59477 -0.777072,-0.78764 0.05845,-0.0946 0.03301,-0.1481 -0.05654,-0.11894 -0.269714,0.0878 -2.181443,-1.62415 -2.050406,-1.83617 0.06683,-0.10813 0.03257,-0.14164 -0.07614,-0.0745 -0.276613,0.17095 -3.971483,-3.6733 -3.798919,-3.95251 0.07648,-0.12375 0.05297,-0.16994 -0.05313,-0.10436 -0.313015,0.19345 -2.026575,-1.67293 -1.881957,-2.0498 0.06835,-0.17811 0.228981,-0.32383 0.356968,-0.32383 0.313358,0 1.349468,1.09671 1.119287,1.18475 -0.100012,0.0382 0.08333,0.33006 0.407439,0.64845 0.437886,0.43018 0.493322,0.45497 0.215777,0.0965 l -0.373503,-0.48242 0.523336,0.46223 c 0.287835,0.25422 0.469178,0.54986 0.402984,0.65696 -0.06619,0.1071 -0.03339,0.14099 0.0729,0.0753 0.24487,-0.15134 1.27382,0.90366 1.075131,1.10235 -0.08109,0.0811 -0.01717,0.11848 0.142025,0.0831 0.1592,-0.0354 0.267744,0.0442 0.241211,0.17689 -0.02653,0.13267 0.0603,0.2195 0.192969,0.19297 0.132666,-0.0265 0.219502,0.0603 0.192969,0.19297 -0.02653,0.13267 0.0603,0.2195 0.192968,0.19297 0.132666,-0.0265 0.219502,0.0603 0.192969,0.19297 -0.02653,0.13266 0.0603,0.2195 0.192969,0.19297 0.132666,-0.0265 0.21735,0.0667 0.188188,0.20731 -0.02916,0.14055 0.02268,0.20877 0.115197,0.15159 0.228019,-0.14093 1.23593,0.93199 1.050098,1.11782 -0.08109,0.0811 -0.01718,0.11848 0.142025,0.0831 0.160247,-0.0356 0.265784,0.0498 0.236429,0.19123 -0.02916,0.14055 0.02334,0.20836 0.116677,0.15067 0.09333,-0.0577 0.363258,0.10116 0.59983,0.35297 0.410475,0.43694 0.413961,0.46757 0.07629,0.67048 -0.303779,0.18254 -0.278207,0.20054 0.180758,0.12717 0.358244,-0.0573 0.491028,-0.015 0.402524,0.12825 -0.08378,0.13556 -0.0213,0.17119 0.170907,0.0974 0.174263,-0.0669 0.446354,0.0422 0.640469,0.25666 0.18562,0.20511 0.258906,0.37431 0.162857,0.37601 -0.09605,0.002 0.115035,0.25843 0.469076,0.57053 0.354041,0.3121 0.595516,0.64544 0.536611,0.74074 -0.151143,0.24456 0.773281,1.0689 1.024534,0.91361 0.118257,-0.0731 0.208523,0.0218 0.210209,0.221 0.0022,0.25719 0.04476,0.28318 0.16176,0.0987 0.126593,-0.19957 0.209815,-0.18889 0.410277,0.0527 0.215911,0.26015 0.199858,0.2865 -0.113518,0.18634 -0.356949,-0.11408 -0.356924,-0.11006 0.0011,0.18237 0.201368,0.16447 0.440167,0.25327 0.530664,0.19734 0.0905,-0.0559 0.164541,-0.005 0.164541,0.11405 0,0.11866 0.077,0.16816 0.171104,0.11 0.189314,-0.117 0.476226,0.19112 0.661243,0.71012 0.143983,0.40389 0.06449,0.43133 -0.228139,0.0787 z m -9.134135,-8.41585 c -0.129548,-0.20744 -0.272912,-0.33979 -0.318587,-0.29412 -0.08271,0.0827 0.337837,0.67128 0.479637,0.67128 0.04097,0 -0.0315,-0.16972 -0.16105,-0.37716 z m -0.771875,-0.77188 c -0.129548,-0.20744 -0.272912,-0.33979 -0.318587,-0.29411 -0.0827,0.0827 0.337837,0.67127 0.479637,0.67127 0.04097,0 -0.0315,-0.16972 -0.16105,-0.37716 z m 0.232271,-0.46757 c 0,-0.0401 -0.151963,-0.19203 -0.337695,-0.33769 -0.30606,-0.24003 -0.312885,-0.23321 -0.07286,0.0729 0.252089,0.32144 0.410552,0.42366 0.410552,0.26484 z m -2.315625,-2.50231 c 0,-0.0366 -0.195381,-0.232 -0.43418,-0.43418 l -0.434179,-0.3676 0.367603,0.43418 c 0.345456,0.40802 0.500756,0.52202 0.500756,0.3676 z M 32.987504,176.8836 c -0.113601,-0.21227 -0.163129,-0.38594 -0.110063,-0.38594 0.05307,0 0.189431,0.17367 0.303032,0.38594 0.113601,0.21226 0.163129,0.38593 0.110063,0.38593 -0.05307,0 -0.189431,-0.17367 -0.303032,-0.38593 z M 175.72845,130.27311 c -0.18996,-1.49055 -0.39132,-2.92334 -0.44746,-3.18398 -0.0819,-0.3801 -0.0624,-0.4124 0.0986,-0.16319 0.23775,0.36801 0.84012,4.79416 0.75396,5.53994 -0.0329,0.28453 -0.2152,-0.70221 -0.40515,-2.19277 z m -86.832273,88.75406 c -0.06412,-0.0641 -0.230558,-0.071 -0.369857,-0.0152 -0.153937,0.0616 -0.108212,0.10733 0.116585,0.11659 0.203422,0.008 0.317394,-0.0372 0.253272,-0.10135 z m -2.122656,-0.38594 c -0.06412,-0.0641 -0.230558,-0.071 -0.369857,-0.0152 -0.153938,0.0616 -0.108212,0.10733 0.116585,0.11659 0.203421,0.008 0.317394,-0.0372 0.253272,-0.10135 z m -18.0868,-6.18027 c 0,-0.0317 -0.171717,-0.14944 -0.381594,-0.26176 -0.299321,-0.16019 -0.359938,-0.14779 -0.281149,0.0575 0.08284,0.21587 0.662743,0.39457 0.662743,0.20423 z m -5.017187,-2.68758 c 0,-0.16546 -0.08825,-0.2463 -0.196116,-0.17964 -0.107864,0.0667 -0.146158,0.20205 -0.0851,0.30084 0.16542,0.26766 0.281212,0.21775 0.281212,-0.1212 z m 44.321986,-2.18678 c -0.57839,-6.57251 -1.10499,-11.41423 -1.40322,-12.90164 -0.0479,-0.2388 -0.17224,-0.43418 -0.27635,-0.43418 -0.276,0 -0.23217,2.86846 0.10173,6.65742 0.30395,3.44908 0.33714,3.70689 0.79499,6.175 0.36211,1.95207 0.40727,2.08014 0.67504,1.91465 0.14804,-0.0915 0.18332,-0.55323 0.10781,-1.41125 z M 43.986722,192.42056 c 0,-0.0287 -0.111646,-0.14487 -0.248102,-0.25812 -0.186794,-0.15502 -0.248103,-0.11859 -0.248103,0.14742 0,0.20861 0.101615,0.31433 0.248103,0.25812 0.136456,-0.0524 0.248102,-0.1187 0.248102,-0.14742 z m -1.254296,-1.45025 c -0.06559,-0.10613 -0.222682,-0.19163 -0.349084,-0.19001 -0.138092,0.002 -0.114291,0.0776 0.05963,0.19001 0.370716,0.23958 0.437518,0.23958 0.289454,0 z m 81.776654,-20.01349 c -0.76416,-1.49541 -1.3823,-3.0135 -1.75114,-4.30057 -0.16276,-0.56797 -0.19647,-0.59866 -0.21194,-0.19297 -0.0411,1.07882 2.27334,6.45357 2.62682,6.1001 0.0572,-0.0572 -0.24146,-0.78018 -0.66374,-1.60656 z m -46.722741,-1.8677 c 0.973933,-1.63779 1.758456,-3.35186 2.169637,-4.74035 0.418189,-1.41216 0.09799,-1.01119 -0.532827,0.66725 -0.279223,0.74293 -1.115845,2.41805 -1.859162,3.72249 -0.743317,1.30444 -1.349554,2.4333 -1.347194,2.50859 0.0075,0.24004 0.753187,-0.78518 1.569546,-2.15798 z m 14.056631,-2.12277 c 0,-0.0417 -0.134764,-0.12755 -0.299475,-0.19076 -0.171728,-0.0659 -0.249185,-0.0335 -0.181581,0.0758 0.113323,0.18336 0.481056,0.27121 0.481056,0.11492 z m 30.58264,-1.90209 c -0.0733,-0.45106 -0.21735,-0.90695 -0.32007,-1.01309 -0.12115,-0.12518 -0.14807,-0.007 -0.0766,0.3377 0.0606,0.29187 0.15521,0.74775 0.2103,1.01309 0.16986,0.81812 0.32777,0.53204 0.18639,-0.3377 z m -6.26295,-8.94684 c 0.68769,-2.68881 0.92482,-8.90394 0.3532,-9.25721 -0.0912,-0.0564 -0.16586,0.77439 -0.16586,1.84617 0,2.2852 -0.29144,5.14656 -0.71777,7.04714 -0.16665,0.74293 -0.33659,1.69812 -0.37764,2.12266 l -0.0746,0.77187 0.30511,-0.53712 c 0.16781,-0.29542 0.47273,-1.19249 0.67759,-1.99351 z m -24.037509,-4.51273 c 0.777889,-1.49041 1.967522,-3.07004 3.447045,-4.57708 0.856407,-0.87234 1.501858,-1.64131 1.434335,-1.70884 -0.114467,-0.11446 -1.730259,1.057 -2.862948,2.07567 -1.559104,1.40216 -2.7064,4.12338 -2.658251,6.30499 l 0.0283,1.28221 0.129507,-1.35078 c 0.07123,-0.74293 0.288135,-1.6547 0.482013,-2.02617 z m -11.818452,-4.87246 c 0.06713,-2.17754 0.167352,-2.95858 0.48159,-3.75302 0.218251,-0.55177 0.354504,-1.04553 0.302784,-1.09725 -0.05172,-0.0517 -0.307849,-0.0127 -0.569178,0.0866 -0.705088,0.26808 -3.103244,0.21462 -4.26675,-0.0951 -1.439665,-0.38324 -4.073704,-1.65479 -4.403606,-2.12579 -0.152745,-0.21808 -0.341173,-0.3965 -0.418729,-0.3965 -0.07756,0 -0.11715,-0.0716 -0.08799,-0.15907 0.02916,-0.0875 -0.03599,-0.10406 -0.144794,-0.0368 -0.317223,0.19606 -1.975297,-1.3302 -3.864674,-3.55744 -1.90116,-2.24113 -2.77861,-2.98024 -5.055714,-4.25866 -0.817508,-0.45897 -1.433652,-0.9198 -1.369209,-1.02408 0.06444,-0.10427 0.02438,-0.13223 -0.08904,-0.0621 -0.113416,0.0701 -0.843229,-0.16209 -1.621807,-0.51597 -2.286338,-1.03917 -4.409153,-1.81905 -5.829373,-2.14159 -1.813707,-0.4119 -8.233688,-2.98756 -10.863528,-4.35839 -2.670735,-1.39214 -5.252539,-3.09965 -7.396523,-4.89177 -3.425144,-2.86302 -4.89851,-4.7751 -5.697202,-7.3936 -0.308493,-1.01139 -0.574669,-1.58744 -0.683309,-1.4788 -0.357651,0.35765 -0.621973,3.30507 -0.383114,4.27205 0.702123,2.84241 5.199998,6.91788 11.732071,10.63029 2.13106,1.21116 3.98694,2.03139 9.50421,4.2005 5.657561,2.22427 9.010762,4.03831 12.157031,6.5768 0.58373,0.47096 3.232226,3.00062 5.885546,5.62144 2.65332,2.62083 5.515098,5.27989 6.359505,5.90903 2.065004,1.53855 4.539371,2.79906 5.494502,2.79906 h 0.742528 z m 1.810931,-7.52578 c 0.907491,-1.51399 1.532065,-2.33474 3.323278,-4.3671 3.642883,-4.13332 5.152888,-7.79025 4.707004,-11.39943 -0.396198,-3.207 -2.356297,-8.17306 -4.169565,-10.56391 -1.970317,-2.59792 -3.462951,-3.49576 -5.419153,-3.25971 -1.550521,0.18711 -0.549532,-0.25836 1.313364,-0.58448 1.949962,-0.34135 2.782187,-0.18965 4.768538,0.86926 0.936316,0.49914 1.542566,0.71614 1.710588,0.6123 0.424422,-0.26231 0.114966,-0.50694 -1.810814,-1.4315 -2.031236,-0.97518 -2.946744,-1.26684 -4.121023,-1.31285 -0.665511,-0.0261 -0.741667,-0.0679 -0.476499,-0.26182 0.323881,-0.23682 0.555613,-1.05778 0.298217,-1.05648 -0.65087,0.003 -2.901668,2.08631 -3.521421,3.25897 -0.230416,0.43597 -0.371116,0.56755 -0.376457,0.35205 -0.01376,-0.555 0.868767,-2.11475 1.566233,-2.76812 0.354408,-0.332 1.201893,-1.00884 1.883299,-1.50408 1.032057,-0.75008 1.393597,-1.17635 2.165293,-2.55297 2.076917,-3.70499 4.14906,-5.31618 9.37157,-7.28685 1.888475,-0.71261 3.737517,-1.45246 4.108982,-1.64413 5.632856,-2.906374 8.969086,-5.426916 12.021796,-9.082528 1.69522,-2.030029 2.42028,-2.386686 1.52472,-0.750004 -0.74428,1.360179 -2.46271,3.558001 -2.733,3.495399 -0.12591,-0.02916 -0.1811,0.02436 -0.12265,0.118937 0.1025,0.165839 -0.56744,0.89893 -0.82148,0.89893 -0.0685,0 -0.1055,0.05691 -0.0823,0.126469 0.0596,0.178665 -1.60686,1.518085 -1.7541,1.409897 -0.0667,-0.049 -0.0805,-0.03389 -0.0307,0.03359 0.14623,0.198191 -1.51365,1.428478 -1.78903,1.326004 -0.13818,-0.05142 -0.20087,-0.01201 -0.13932,0.08759 0.13996,0.226462 -0.56455,0.622884 -0.77282,0.434862 -0.084,-0.07587 -0.0946,-0.03623 -0.0234,0.08809 0.24194,0.42252 -3.485036,2.412374 -7.828861,4.179874 -3.15445,1.28354 -5.413951,2.41708 -4.878142,2.44723 0.338381,0.0191 0.328044,0.0449 -0.08389,0.20943 -0.258404,0.10324 -0.603101,0.13656 -0.765994,0.0741 -0.162893,-0.0625 -0.236482,-0.054 -0.163533,0.019 0.07295,0.073 -0.363876,0.43018 -0.970725,0.79385 -2.296086,1.37598 -3.294565,2.80232 -3.697251,5.28157 -0.178021,1.09603 -0.162722,1.27053 0.130453,1.48799 0.279143,0.20706 0.353736,0.19166 0.467615,-0.0965 0.215478,-0.54523 0.183545,-0.68161 -0.1313,-0.5608 -0.247621,0.095 -0.258268,0.0451 -0.0676,-0.31705 0.124477,-0.23641 0.278732,-0.47325 0.342788,-0.52632 0.06406,-0.0531 0.75392,-0.86084 1.53303,-1.79505 2.107075,-2.52654 3.336252,-3.1977 9.098977,-4.96826 2.783081,-0.85508 4.889473,-1.74905 6.458293,-2.74095 0.53405,-0.33766 1.01443,-0.66132 1.06749,-0.71924 0.47569,-0.51921 2.79774,-2.208733 2.96681,-2.158659 0.11945,0.03538 0.15415,0.0013 0.0771,-0.07574 -0.077,-0.07703 0.31724,-0.634 0.87617,-1.237707 0.55893,-0.603707 1.58604,-1.935639 2.28247,-2.959849 0.69643,-1.024211 1.33436,-1.798727 1.41763,-1.721148 0.0833,0.07758 0.10973,0.0108 0.0588,-0.148399 -0.0509,-0.1592 0.0945,-0.593379 0.32313,-0.964844 0.22863,-0.371465 0.53059,-0.960392 0.67103,-1.308727 0.40572,-1.00635 0.43357,-0.596591 0.0377,0.554124 -0.65533,1.904744 -2.29634,5.161717 -3.17801,6.30752 -3.09147,4.017594 -8.962475,7.415694 -14.891826,8.619309 -0.849062,0.17235 -1.847676,0.41 -2.21914,0.52812 -0.983299,0.31266 -2.701563,1.14522 -2.701563,1.309 0,0.0774 0.455889,-0.0168 1.013086,-0.20926 0.617921,-0.21347 1.577607,-0.35219 2.460351,-0.35564 2.626238,-0.0103 5.986365,-0.71351 8.303572,-1.737845 4.21321,-1.86248 7.07889,-4.37705 10.01263,-8.785898 1.60637,-2.414063 2.2938,-3.389209 1.85525,-2.631746 -0.0865,0.149398 -0.0573,0.32141 0.0677,0.398653 0.30086,0.185947 -1.39023,3.600555 -2.57671,5.202819 -1.22633,1.656082 -4.48718,5.166542 -5.57645,6.003322 -0.48356,0.371465 -0.88248,0.739775 -0.88649,0.818465 -0.0112,0.21944 2.3461,-0.716525 3.29697,-1.309055 l 0.84455,-0.52628 -0.48242,0.52891 c -0.26534,0.2909 -0.69657,0.611515 -0.95831,0.712485 -0.3764,0.1452 -0.41834,0.21914 -0.20064,0.35368 0.23067,0.14256 0.21398,0.23907 -0.10302,0.5959 l -0.37827,0.42579 0.57891,-0.14366 c 0.3184,-0.079 0.81504,-0.14766 1.10366,-0.15255 0.28861,-0.005 0.48981,-0.0654 0.44712,-0.1345 -0.0731,-0.11826 1.96733,-0.84231 2.9535,-1.04805 0.42067,-0.08781 0.43066,-0.0708 0.14431,0.24564 -0.1692,0.18697 -0.24956,0.39802 -0.17857,0.46901 0.12105,0.12104 -0.22246,0.20868 -0.57675,0.14713 -0.0875,-0.0152 -0.10362,0.0621 -0.0359,0.17172 0.17426,0.28196 -2.5924,1.57634 -3.05529,1.42942 -0.20242,-0.0642 -0.32279,-0.0424 -0.2675,0.0486 0.1032,0.16978 -1.30949,0.32979 -3.07303,0.34806 -0.54706,0.006 -0.96212,0.063 -0.92236,0.12729 0.13102,0.21199 -3.716638,0.33095 -7.211855,0.22298 -5.235725,-0.16173 -6.737983,0.28785 -9.176984,2.74642 -0.606493,0.61135 -1.077584,1.1234 -1.046868,1.13787 0.03072,0.0145 0.490776,0.38167 1.022357,0.81601 0.531581,0.43434 1.158788,0.85073 1.393793,0.92532 0.544198,0.17272 1.854545,-0.40708 2.736853,-1.21101 0.54857,-0.49983 0.7101,-0.56041 0.964844,-0.36183 0.492899,0.38422 0.588045,0.58537 0.614851,1.29983 0.01394,0.37147 0.05977,0.54514 0.101861,0.38594 0.05259,-0.19894 0.561451,0.17592 1.627283,1.19877 0.852918,0.81853 2.246548,2.01252 3.096954,2.65332 0.850406,0.64081 1.432304,1.16857 1.293106,1.17282 -0.139198,0.004 -0.0066,0.1413 0.294637,0.30456 0.301248,0.16325 0.601381,0.24317 0.666963,0.17759 0.06558,-0.0656 -0.06634,-0.16777 -0.29316,-0.22709 -0.22682,-0.0593 -0.37547,-0.20783 -0.330332,-0.33004 0.04514,-0.12221 -0.199908,-0.4043 -0.544543,-0.62687 -0.871853,-0.56306 -5.292727,-4.65877 -5.438406,-5.0384 -0.06563,-0.17102 0.382567,0.18981 0.995983,0.80185 0.613416,0.61204 1.636318,1.50955 2.273114,1.99448 0.636797,0.48493 1.433384,1.14857 1.770193,1.47476 0.336809,0.32619 1.118332,0.88973 1.736719,1.2523 0.618382,0.36257 1.559277,0.94871 2.090857,1.30253 0.64986,0.43256 1.19531,0.64333 1.66485,0.64333 0.38408,0 0.78122,0.10854 0.88253,0.24121 0.10131,0.13266 0.28163,0.89248 0.40072,1.68847 0.2499,1.67034 1.16638,4.75557 1.89488,6.37888 0.27837,0.62031 0.43689,1.22437 0.35575,1.35566 -0.0866,0.1401 -0.0664,0.18738 0.0495,0.11577 0.2581,-0.15951 0.91519,1.30899 0.72407,1.61821 -0.0907,0.1467 -0.0688,0.19059 0.0563,0.11325 0.11653,-0.072 0.47215,0.3482 0.82747,0.97777 0.3427,0.60725 1.38195,2.27884 2.30944,3.71465 1.91942,2.97141 3.35485,5.70915 3.15929,6.02557 -0.0738,0.11946 -0.0458,0.1609 0.0632,0.0935 0.18213,-0.11256 0.54641,0.55289 1.0199,1.86307 0.18625,0.51538 0.24563,0.54009 1.01635,0.42296 2.36224,-0.35897 4.06695,-0.78551 5.50488,-1.37736 2.82598,-1.16318 4.52758,-2.4226 8.04961,-5.95783 2.46578,-2.47502 2.57775,-2.55876 6.56093,-4.90713 9.78706,-5.77015 15.07457,-9.81209 19.87089,-15.18994 3.95145,-4.43054 7.59321,-11.44418 7.13692,-13.744955 -0.0766,-0.38636 -0.15497,-1.65767 -0.1741,-2.82513 -0.0689,-4.201121 -1.37143,-7.202985 -4.89629,-11.283804 -2.48458,-2.876477 -7.45448,-8.07358 -7.73813,-8.091901 -0.15036,-0.0097 -0.21962,-0.07141 -0.15392,-0.137114 0.12404,-0.124041 -0.13758,-0.416504 -0.66993,-0.748902 -0.16998,-0.106133 -1.23795,-0.974492 -2.37327,-1.929688 -1.13531,-0.955195 -2.92346,-2.3096 -3.97366,-3.009788 -1.0502,-0.700188 -1.84553,-1.343671 -1.76742,-1.429961 0.0781,-0.08629 0.0343,-0.09492 -0.0974,-0.01918 -0.1331,0.07655 -0.73298,-0.148669 -1.35078,-0.507147 -3.81856,-2.215701 -10.72139,-4.924903 -16.06643,-6.305699 -7.02875,-1.815753 -16.76501,-2.925156 -23.15625,-2.638551 -10.89862,0.488732 -22.3557,2.771887 -31.26094,6.229646 -5.880214,2.283191 -13.809616,6.760278 -18.332031,10.350601 -1.601926,1.271761 -6.558115,5.756105 -8.763305,7.92901 -1.753195,1.727527 -4.854081,5.096925 -5.590507,6.074598 l -0.794234,1.05442 0.03694,3.072702 c 0.02032,1.68999 0.08723,3.123 0.148696,3.18447 0.15872,0.15872 1.444567,-1.28283 3.149107,-3.53043 3.929228,-5.181065 9.596961,-10.83546 14.125335,-14.092096 5.232759,-3.763202 10.06923,-6.325142 17.650748,-9.349824 9.281239,-3.702795 17.662226,-5.338907 29.859631,-5.82911 8.33139,-0.334832 13.59245,0.141975 20.57816,1.864983 10.2614,2.530953 19.22201,6.823989 25.99258,12.453066 5.37735,4.470751 8.73369,7.822436 12.28003,12.263012 2.45346,3.072119 2.92216,3.844959 2.97717,4.909109 0.0448,0.86698 0.0444,0.86761 -0.27598,0.39396 -0.17647,-0.26092 -1.35718,-1.78055 -2.6238,-3.376954 -3.54496,-4.467981 -9.79134,-10.664681 -13.71347,-13.604409 -0.74293,-0.556843 -1.32692,-1.096802 -1.29776,-1.19991 0.0292,-0.103107 -0.0354,-0.132787 -0.14359,-0.06595 -0.18265,0.112885 -1.56642,-0.781797 -1.71047,-1.105913 -0.0354,-0.0796 -0.16564,-0.145552 -0.28946,-0.14656 -0.12382,-10e-4 -0.77134,-0.348352 -1.43894,-0.771875 -0.66759,-0.423523 -1.30228,-0.770042 -1.41041,-0.770042 -0.10813,0 -0.13414,-0.108545 -0.0578,-0.241211 0.0763,-0.132666 0.0686,-0.177675 -0.0172,-0.10002 -0.21903,0.198179 -2.04391,-0.828469 -1.89652,-1.066952 0.0663,-0.107359 0.0282,-0.138081 -0.0847,-0.06827 -0.24914,0.153976 -0.85191,-0.05107 -0.73,-0.248322 0.0478,-0.07732 -0.0178,-0.142103 -0.14584,-0.143956 -0.12799,-0.0019 -0.99076,-0.363669 -1.91726,-0.804036 -0.9265,-0.440368 -1.72756,-0.800668 -1.78013,-0.800668 -0.0526,0 -0.64049,-0.245449 -1.30647,-0.545442 -0.66599,-0.299993 -2.35633,-0.927602 -3.75632,-1.394687 -1.62678,-0.542753 -2.46249,-0.909082 -2.31562,-1.015047 0.14322,-0.103333 0.0622,-0.128911 -0.21493,-0.06789 -0.2446,0.05385 -0.80903,-0.01713 -1.2543,-0.157743 -0.44526,-0.140612 -1.54767,-0.448739 -2.4498,-0.684725 -0.90213,-0.235987 -1.77049,-0.474512 -1.92969,-0.530055 -0.7149,-0.249426 -7.1343,-1.336806 -9.55195,-1.618003 -3.21459,-0.373889 -12.285958,-0.319351 -15.630462,0.09397 -9.316759,1.15139 -16.044335,2.774906 -22.96328,5.541558 -12.704261,5.080005 -20.934997,10.57797 -27.865524,18.613605 -3.357404,3.892758 -6.579396,8.747748 -6.579396,9.91403 0,1.21033 1.314529,5.04105 1.729861,5.04105 0.109904,0 0.201606,-0.10855 0.203782,-0.24121 0.0077,-0.46675 4.488642,-6.875172 6.84771,-9.793172 2.229466,-2.757679 6.294753,-7.013826 8.425001,-8.820539 5.635424,-4.779536 17.929372,-9.741257 28.556996,-11.525335 3.192598,-0.535946 6.551142,-0.894334 7.963716,-0.849801 0.716067,0.02257 0.797892,0.04869 0.304181,0.09708 -10.757298,1.054324 -20.406493,3.704293 -28.848827,7.922783 -4.844278,2.420604 -6.287358,3.409703 -9.523756,6.527663 -4.108689,3.958328 -7.268421,7.754401 -11.235758,13.498551 -1.09955,1.59199 -2.074339,2.94765 -2.166198,3.01259 -0.09186,0.0649 -0.153993,0.15176 -0.138078,0.19296 0.01592,0.0412 -0.02878,0.22533 -0.09933,0.40917 -0.270832,0.70578 2.769521,5.38284 5.219081,8.02865 0.577466,0.62373 0.986911,1.20377 0.909879,1.28898 -0.07703,0.0852 -0.03745,0.0961 0.08795,0.0243 0.125404,-0.0719 0.349252,0.0424 0.49744,0.25402 0.53684,0.76644 5.108429,4.92206 6.953052,6.32038 2.14565,1.62652 5.208825,3.67356 9.900537,6.61625 3.290082,2.06358 4.279957,2.90462 7.5069,6.37825 2.18818,2.35545 4.824438,3.93364 7.898605,4.72848 0.962408,0.24883 2.069179,0.45669 2.459493,0.46191 0.668002,0.009 0.752098,-0.0613 1.432576,-1.19657 z m 19.75971,-24.26851 c -0.20364,-0.13349 -0.0892,-0.153 0.38594,-0.0658 0.83223,0.15272 0.98921,0.26244 0.36986,0.25851 -0.25649,-0.002 -0.5966,-0.0883 -0.7558,-0.1927 z m 0.0482,-0.51105 c -0.13266,-0.0535 -0.24121,-0.18205 -0.24121,-0.2856 0,-0.10356 0.10855,-0.12071 0.24121,-0.0381 0.13267,0.0826 0.4283,0.126 0.65696,0.0965 0.22867,-0.0295 0.47259,0.0383 0.54206,0.15068 0.12939,0.20936 -0.73337,0.26446 -1.19902,0.0766 z m -2.238437,-0.85918 c -0.620884,-0.32036 -1.085407,-0.62595 -1.032276,-0.67908 0.09028,-0.0903 1.611723,0.63515 2.257633,1.07645 0.58555,0.40007 -0.12895,0.16836 -1.225357,-0.39737 z m 1.611297,-0.15915 c -1.09524,-0.22201 -2.306109,-0.94367 -4.052345,-2.41514 -0.902129,-0.76018 -1.854937,-1.529 -2.117351,-1.70848 -0.262414,-0.17949 -0.374338,-0.32634 -0.24872,-0.32634 0.125618,0 0.715204,0.39651 1.31019,0.88113 2.426889,1.97673 4.670456,3.21642 6.555486,3.62226 0.22989,0.0495 0.15186,0.0832 -0.19297,0.0833 -0.3184,1.1e-4 -0.88283,-0.0614 -1.25429,-0.13671 z m 0.38593,-0.66642 c 0,-0.0417 0.13026,-0.12583 0.28946,-0.18692 0.1592,-0.0611 0.28945,-0.027 0.28945,0.0758 0,0.1028 -0.13025,0.18691 -0.28945,0.18691 -0.1592,0 -0.28946,-0.0341 -0.28946,-0.0758 z m -4.160961,-0.93725 -0.566767,-0.62715 0.627148,0.56677 c 0.344932,0.31172 0.627149,0.59393 0.627149,0.62714 0,0.14908 -0.159224,0.0178 -0.68753,-0.56676 z m 4.456811,0.1244 c -0.95167,-0.26096 -2.080537,-0.68476 -2.508587,-0.94177 -1.365233,-0.81973 -3.897934,-2.9388 -3.897934,-3.26134 0,-0.38754 -0.0068,-0.38805 0.718785,0.0532 0.35006,0.21288 0.498038,0.39836 0.355674,0.44582 -0.134086,0.0447 0.765711,0.58344 1.999549,1.19721 1.287966,0.64069 2.342783,1.05448 2.476853,0.97163 0.15919,-0.0984 0.18324,-0.063 0.0756,0.11126 -0.11469,0.18557 -0.07,0.22182 0.16315,0.13235 0.17661,-0.0678 0.32111,-0.034 0.32111,0.0751 0,0.10907 0.0712,0.15431 0.15818,0.10055 0.18124,-0.11202 2.40105,0.53892 2.27334,0.66664 -0.0462,0.0462 0.30026,0.0534 0.76987,0.0161 0.71501,-0.0569 0.8348,-0.0183 0.73672,0.23732 -0.1048,0.27309 -1.22161,0.71716 -1.71897,0.68349 -0.10613,-0.007 -0.97161,-0.22657 -1.92329,-0.48753 z m 0.19979,-0.63369 c -0.0583,-0.0944 -0.34567,-0.2299 -0.63854,-0.30118 -0.81012,-0.19715 -3.137563,-1.29908 -3.137563,-1.48548 0,-0.0904 -0.100294,-0.1644 -0.222876,-0.1644 -0.327864,0 0.419445,0.76332 1.09078,1.11415 0.548212,0.28649 2.521999,0.97578 2.858129,0.99813 0.0859,0.006 0.10839,-0.0668 0.0501,-0.16122 z m 0.85514,-0.0214 c -0.15919,-0.10288 -0.37628,-0.18705 -0.48242,-0.18705 -0.10613,0 -0.0627,0.0842 0.0965,0.18705 0.1592,0.10289 0.37629,0.18706 0.48242,0.18706 0.10613,0 0.0627,-0.0842 -0.0965,-0.18706 z m -7.043352,-0.69653 -0.771875,-0.6908 0.820117,0.6134 c 0.70586,0.52794 0.960476,0.78229 0.771875,0.77106 -0.02653,-0.002 -0.395586,-0.31372 -0.820117,-0.69366 z m 7.139842,-0.17107 c -0.53067,-0.14482 -1.30536,-0.407 -1.72156,-0.58262 -0.5909,-0.24935 -0.69661,-0.36077 -0.48242,-0.50851 0.20584,-0.14199 0.17338,-0.16109 -0.13011,-0.0765 -0.2699,0.0752 -1.192407,-0.27638 -2.773583,-1.05707 -1.303049,-0.64336 -2.33338,-1.20554 -2.289624,-1.2493 0.111074,-0.11107 1.581921,0.41148 2.542782,0.90339 0.441195,0.22587 1.453438,0.65347 2.249435,0.95023 0.796,0.29676 1.27794,0.54378 1.07098,0.54894 -0.25876,0.006 -0.31406,0.0716 -0.17705,0.20863 0.19101,0.19101 1.50657,0.29764 4.41271,0.35767 0.95049,0.0196 1.265,0.0833 1.06133,0.21496 -0.25729,0.16628 -0.25729,0.1889 0,0.20358 0.19499,0.0111 0.1635,0.0706 -0.0965,0.18236 -0.58639,0.25198 -2.58331,0.19984 -3.6664,-0.0957 z m 0.14473,-1.19827 c -0.2388,-0.046 -0.43418,-0.1599 -0.43418,-0.25313 0,-0.0932 0.28221,-0.0743 0.62714,0.0421 1.00508,0.33908 0.92521,0.42644 -0.19296,0.21107 z m 3.38901,0.004 c 0.1393,-0.0558 0.30573,-0.0489 0.36986,0.0152 0.0641,0.0641 -0.0498,0.10973 -0.25328,0.10135 -0.22479,-0.009 -0.27052,-0.055 -0.11658,-0.11658 z m -12.726618,-0.65151 -0.455557,-0.39739 0.530664,0.3231 c 0.291865,0.1777 0.530664,0.35653 0.530664,0.39739 0,0.15068 -0.161223,0.0647 -0.605771,-0.3231 z m 8.288338,0.26557 c 0.1393,-0.0557 0.30573,-0.0489 0.36985,0.0152 0.0641,0.0641 -0.0499,0.10973 -0.25327,0.10135 -0.22479,-0.009 -0.27052,-0.055 -0.11658,-0.11658 z m -4.690186,-0.25191 c -0.0676,-0.10938 0.0099,-0.14173 0.18158,-0.0758 0.334303,0.12829 0.395468,0.2666 0.117896,0.2666 -0.09987,0 -0.234633,-0.0858 -0.299476,-0.19076 z m 2.217779,-0.50296 c -1.752036,-0.72308 -3.518788,-1.39292 -4.148832,-1.57297 -0.363042,-0.10374 -1.419209,-0.82081 -1.208975,-0.82081 0.05355,0 0.651407,0.17714 1.328563,0.39364 0.677156,0.21651 1.738284,0.44678 2.358062,0.51172 0.644094,0.0675 1.167636,0.22432 1.222025,0.36605 0.05234,0.13638 0.232467,0.19528 0.400297,0.13088 0.19315,-0.0741 0.25695,-0.0391 0.17385,0.0953 -0.0722,0.11684 -0.0296,0.27527 0.0946,0.35207 0.141107,0.0872 0.174237,0.056 0.0883,-0.0832 -0.0775,-0.12532 -0.0272,-0.22149 0.11491,-0.21982 0.30423,0.004 0.91384,0.37289 0.63853,0.38686 -0.10613,0.005 0.0241,0.13317 0.28946,0.28396 0.26533,0.15079 0.65609,0.22886 0.86836,0.17349 0.31378,-0.0818 0.33182,-0.0628 0.0965,0.10198 -0.25729,0.18014 -0.25729,0.20331 0,0.20856 0.25729,0.005 0.25729,0.0267 0,0.19297 -0.41377,0.2674 -0.49916,0.24893 -2.315617,-0.50075 z m -5.305279,0.30999 c -0.0676,-0.10938 0.0099,-0.14173 0.181581,-0.0758 0.334302,0.12829 0.395467,0.2666 0.117895,0.2666 -0.09987,0 -0.234633,-0.0858 -0.299476,-0.19076 z m -6.695184,-0.84107 c -0.179218,-0.13623 -0.294407,-0.41569 -0.255975,-0.62101 0.03843,-0.20533 0.07652,-0.43623 0.08464,-0.5131 0.0081,-0.0769 0.286067,-0.28007 0.61766,-0.45154 0.505688,-0.2615 0.644835,-0.26983 0.863013,-0.0516 0.218178,0.21817 0.161202,0.25986 -0.353373,0.25857 -0.459177,-0.001 -0.673699,0.1179 -0.852859,0.47334 -0.459686,0.91197 0.418078,1.30936 1.222633,0.55352 0.526048,-0.4942 0.774683,-0.36992 0.41433,0.2071 -0.289488,0.46354 -1.218961,0.54087 -1.740068,0.14477 z m 0.422334,-0.47332 c 0,-0.0849 0.104203,-0.25858 0.231563,-0.38594 0.340203,-0.3402 0.540312,-0.28303 0.540312,0.15437 0,0.25729 -0.128646,0.38594 -0.385937,0.38594 -0.212266,0 -0.385938,-0.0695 -0.385938,-0.15437 z m 9.069531,-1.0171 c -0.477598,-0.0887 -1.215703,-0.29175 -1.640234,-0.45126 l -0.771875,-0.29002 1.157812,-2.9e-4 c 1.04479,-2.7e-4 3.766705,0.50658 2.931385,0.54585 -0.191996,0.009 -0.295416,0.10325 -0.229822,0.20938 0.135882,0.21986 -0.207028,0.21662 -1.447266,-0.0137 z m 5.113665,-1.43812 c 1.20982,-0.33593 1.27023,-0.33553 0.67539,0.005 -0.26533,0.15168 -0.74293,0.273 -1.06132,0.26959 -0.46669,-0.005 -0.39187,-0.0581 0.38593,-0.2741 z m -2.846287,-0.21977 c 0.13267,-0.0535 0.34976,-0.0535 0.48243,0 0.132657,0.0535 0.0241,0.0973 -0.24121,0.0973 -0.26534,0 -0.37388,-0.0438 -0.24122,-0.0973 z m 61.528657,-0.73012 c -0.082,-0.32662 -0.21196,-0.46022 -0.36322,-0.37333 -0.12956,0.0744 -0.17747,0.0705 -0.10647,-0.009 0.071,-0.0792 -0.0593,-0.36056 -0.28945,-0.62531 -0.2302,-0.26475 -0.4294,-0.56124 -0.44266,-0.65887 -0.0133,-0.0976 -0.035,-0.26434 -0.0482,-0.37047 -0.0133,-0.10614 -0.14011,-0.19297 -0.28188,-0.19297 -0.14176,0 -0.90831,-0.84695 -1.70344,-1.88211 -1.63766,-2.13203 -5.31436,-6.218992 -6.15151,-6.837926 -0.30565,-0.225979 -0.50231,-0.497315 -0.43701,-0.602968 0.067,-0.108483 0.0212,-0.131798 -0.10543,-0.05357 -0.12546,0.07754 -0.27511,0.0057 -0.33991,-0.163154 -0.0637,-0.165926 -0.24186,-0.301684 -0.39596,-0.301684 -0.15411,0 -0.22653,-0.08684 -0.16094,-0.192968 0.0656,-0.106133 -0.0161,-0.192969 -0.18158,-0.192969 -0.16546,0 -0.30084,-0.06625 -0.30084,-0.14721 0,-0.08097 -0.19538,-0.236107 -0.43418,-0.344758 -0.2388,-0.108651 -0.41247,-0.302915 -0.38594,-0.431696 0.0265,-0.128782 -0.14714,-0.235478 -0.38594,-0.237103 -0.35109,-0.0024 -0.37878,-0.03875 -0.14472,-0.190014 0.23406,-0.151263 0.20637,-0.187625 -0.14473,-0.190014 -0.2388,-0.0016 -0.43418,-0.08979 -0.43418,-0.195924 0,-0.106132 -0.13538,-0.192968 -0.30084,-0.192968 -0.16546,0 -0.24717,-0.08684 -0.18158,-0.192969 0.0656,-0.106133 -0.0546,-0.192969 -0.26712,-0.192969 -0.21251,0 -0.52324,-0.195381 -0.6905,-0.43418 -0.16726,-0.238798 -0.36756,-0.434179 -0.44512,-0.434179 -0.0776,0 -0.11715,-0.07158 -0.088,-0.15907 0.0292,-0.08749 -0.0342,-0.105159 -0.14082,-0.03927 -0.10661,0.06589 -0.65148,-0.212534 -1.21083,-0.618722 -3.33809,-2.42406 -8.90981,-5.423377 -13.16645,-7.087628 -2.39663,-0.937032 -6.44972,-2.209044 -10.14246,-3.183085 -2.21285,-0.583689 -1.78886,-0.638174 0.58293,-0.07491 4.03167,0.957462 8.25355,2.285426 11.67461,3.672167 2.66304,1.079475 8.99113,4.314122 8.8588,4.528236 -0.0543,0.0879 0.0159,0.11581 0.15605,0.06203 0.29665,-0.113832 2.55806,1.343838 4.47789,2.886363 0.73464,0.590262 1.38591,1.022781 1.44726,0.961153 0.11338,-0.113871 -0.53227,-0.723627 -3.89187,-3.675546 -1.03442,-0.9089 -1.83253,-1.7306 -1.77357,-1.825999 0.059,-0.0954 0.0152,-0.184308 -0.0972,-0.197574 -0.11239,-0.01327 -0.28388,-0.03498 -0.38109,-0.04824 -0.22691,-0.03097 -0.98108,-0.896815 -0.98108,-1.126363 0,-0.09616 -0.0868,-0.121164 -0.19296,-0.05557 -0.10614,0.06559 -0.19297,0.03315 -0.19297,-0.07209 0,-0.105245 -0.17367,-0.246475 -0.38594,-0.313846 -0.21227,-0.06737 -0.38727,-0.268603 -0.38889,-0.447183 -0.003,-0.280161 -0.0286,-0.284994 -0.19002,-0.03524 -0.1586,0.245419 -0.1875,0.236347 -0.19001,-0.05963 -0.002,-0.191996 -0.074,-0.305188 -0.16079,-0.251537 -0.0868,0.05365 -0.39073,-0.11841 -0.67539,-0.382358 -0.28466,-0.263948 -0.51756,-0.426771 -0.51756,-0.361828 0,0.06494 -0.14243,-0.02436 -0.31652,-0.198452 -0.1741,-0.174091 -0.54315,-0.461828 -0.82012,-0.639417 -0.57671,-0.369772 -0.70818,-0.466686 -1.37195,-1.011391 -1.35732,-1.11384 4.5605,2.789168 6.75391,4.454441 3.98471,3.025261 10.04702,8.912343 13.3025,12.918012 1.57324,1.93577 3.89317,5.22794 5.1747,7.34332 0.25147,0.41509 0.35134,0.78023 0.25573,0.93494 -0.11218,0.1815 -0.19328,0.10888 -0.28455,-0.2548 z M 97.402842,100.1428 c 0.139299,-0.0558 0.305735,-0.0489 0.369857,0.0152 0.06412,0.0641 -0.04985,0.10973 -0.253272,0.10135 -0.224797,-0.009 -0.270522,-0.055 -0.116585,-0.11658 z m 2.264971,-0.81134 c 0.10083,-0.0942 0.400407,-0.22808 0.665737,-0.2975 l 0.48242,-0.12622 -0.48242,0.29066 c -0.537647,0.32394 -0.960487,0.40845 -0.665737,0.13306 z m 2.402457,-1.14257 c 0.68986,-0.42141 1.73093,-1.058 2.31347,-1.41465 0.58255,-0.35665 1.92735,-1.51681 2.98845,-2.57814 1.67729,-1.677637 1.81,-1.777017 1.01602,-0.760852 -1.48686,1.902942 -3.17806,3.306212 -5.73903,4.761942 -1.44373,0.82066 -1.92465,0.81376 -0.57891,-0.008 z m -10.000524,0.25084 c 0.05399,-0.054 1.252479,-0.49321 2.663301,-0.97604 1.410822,-0.48283 3.68227,-1.42828 5.047666,-2.10101 1.365387,-0.67274 2.482527,-1.1453 2.482527,-1.05014 0,0.0952 0.13538,0.17301 0.30084,0.17301 0.16546,0 0.24352,0.0928 0.17345,0.20613 -0.0701,0.11337 -0.25337,0.15778 -0.40735,0.0987 -0.15397,-0.0591 -0.22871,-0.0245 -0.16608,0.0768 0.13384,0.21655 -1.44813,1.04299 -3.851694,2.01219 -2.198584,0.88654 -6.691976,2.00965 -6.24266,1.56034 z M 36.673283,96.47265 c 0.140509,-0.23397 0.297007,-0.38387 0.347774,-0.3331 0.05077,0.0508 -0.0642,0.2422 -0.255471,0.4254 -0.332281,0.31826 -0.336393,0.31415 -0.0923,-0.0923 z m 0.560689,-0.65814 c 6.35e-4,-0.14698 0.791971,-1.17902 1.758523,-2.29341 0.966553,-1.114395 1.889573,-2.224263 2.051156,-2.466374 0.161583,-0.242111 0.336019,-0.39797 0.387635,-0.346354 0.05162,0.05162 -0.681034,1.03123 -1.628112,2.17692 -0.947078,1.145688 -1.91285,2.333578 -2.146159,2.639758 -0.233309,0.30618 -0.423679,0.43644 -0.423043,0.28946 z m 66.283608,-1.811 c 0.31839,-0.280687 1.01308,-0.841875 1.54375,-1.24708 0.53066,-0.405205 1.16022,-0.923318 1.39902,-1.151363 0.2388,-0.228044 0.43418,-0.332099 0.43418,-0.231232 0,0.100868 -0.75982,0.784481 -1.68848,1.519141 -1.73267,1.370704 -2.72086,2.020654 -1.68847,1.110534 z m -1.04525,0.0419 c 0.0442,-0.03 0.25407,-0.181993 0.46634,-0.337693 0.35699,-0.261861 0.36608,-0.257765 0.1211,0.0546 -0.14566,0.185732 -0.35552,0.337699 -0.46634,0.337699 -0.11083,0 -0.16532,-0.0246 -0.1211,-0.0546 z m 5.00111,-3.515316 c 0.24926,-0.265332 0.49663,-0.482421 0.54969,-0.482421 0.0531,0 -0.10746,0.217089 -0.35673,0.482421 -0.24926,0.265332 -0.49663,0.482422 -0.54969,0.482422 -0.0531,0 0.10746,-0.21709 0.35673,-0.482422 z M 44.951566,86.912271 c 0,-0.06798 0.303511,-0.454067 0.674469,-0.857971 0.370958,-0.403904 0.674883,-0.642861 0.67539,-0.531015 5.08e-4,0.111847 -0.303003,0.497934 -0.674468,0.857971 -0.371465,0.360038 -0.675391,0.598995 -0.675391,0.531015 z m 2.315625,-2.347556 c 1.037247,-1.170975 7.582279,-6.25372 9.358984,-7.268006 1.116069,-0.637141 0.803945,-0.376085 -1.061328,0.887681 -1.632962,1.106369 -5.697481,4.271893 -7.71875,6.011507 -0.58373,0.50239 -0.844238,0.668359 -0.578906,0.368818 z m 10.227343,-7.721832 c 0,-0.05307 0.173672,-0.189431 0.385938,-0.303032 0.212265,-0.113601 0.385937,-0.16313 0.385937,-0.110063 0,0.05307 -0.173672,0.18943 -0.385937,0.303031 -0.212266,0.113602 -0.385938,0.16313 -0.385938,0.110064 z m 0.964844,-0.582575 c 0,-0.05307 0.260508,-0.231198 0.578906,-0.395848 0.318399,-0.16465 0.578906,-0.255946 0.578906,-0.20288 0,0.05307 -0.260507,0.231199 -0.578906,0.395849 -0.318398,0.16465 -0.578906,0.255946 -0.578906,0.202879 z m 59.784122,-0.04525 c 0.1393,-0.05574 0.30574,-0.04889 0.36986,0.01523 0.0641,0.06412 -0.0498,0.109729 -0.25327,0.101351 -0.2248,-0.0093 -0.27052,-0.05499 -0.11659,-0.116586 z M 60.196097,75.295465 c 0,-0.05307 0.260508,-0.231198 0.578906,-0.395849 0.318398,-0.16465 0.578906,-0.255946 0.578906,-0.202879 0,0.05307 -0.260508,0.231198 -0.578906,0.395848 -0.318398,0.16465 -0.578906,0.255946 -0.578906,0.20288 z m 32.859974,-0.828114 c 0.614139,-0.03841 1.569334,-0.03805 2.122656,7.92e-4 0.553322,0.03885 0.05084,0.07027 -1.116616,0.06984 -1.167461,-4.35e-4 -1.620179,-0.03222 -1.00604,-0.07063 z m -5.426337,61.522109 c 1.577712,-1.05866 3.119993,-2.33062 2.987088,-2.46352 -0.04773,-0.0477 -1.021825,0.57882 -2.164646,1.39234 -1.142822,0.81353 -2.193368,1.52346 -2.334547,1.57764 -0.290241,0.11137 -0.35005,0.44315 -0.07989,0.44315 0.09724,0 0.813638,-0.42733 1.591992,-0.94961 z m 11.072094,-6.57617 c -0.452556,-4.15712 -0.92286,-6.12549 -1.965475,-8.22613 -0.493622,-0.99454 -0.971628,-1.80825 -1.062236,-1.80825 -0.23399,0 -0.219247,0.0468 0.316452,1.00531 1.251672,2.23948 2.015694,5.49872 2.410602,10.28336 0.122637,1.48586 0.281216,3.00549 0.352396,3.37696 0.285982,1.49243 0.248367,-1.87451 -0.05174,-4.63125 z m -3.443865,-1.10957 c -0.14041,-2.71263 -0.519587,-4.80551 -1.276135,-7.04367 -0.897394,-2.65485 -2.699904,-6.03287 -4.235674,-7.93795 -0.850657,-1.05521 -0.754164,-0.69014 0.136704,0.5172 0.952793,1.29127 2.359535,3.77402 2.998356,5.2918 1.105051,2.62548 2.045435,6.99542 2.051891,9.53508 0.0027,1.05822 0.153273,1.90492 0.338784,1.90492 0.05689,0 0.05062,-1.02032 -0.01393,-2.26738 z m 49.589097,-3.22962 c 3.00796,-1.38976 8.03356,-4.48253 10.77208,-6.62917 1.95297,-1.53087 5.07134,-4.72222 6.2525,-6.39883 1.10802,-1.57279 2.49152,-4.19076 3.13897,-5.93982 0.22467,-0.60695 0.49523,-1.32063 0.60124,-1.58596 0.106,-0.26533 0.22075,-0.61268 0.25499,-0.77188 0.0342,-0.1592 0.14949,-0.63679 0.25611,-1.06132 0.17033,-0.67823 0.18322,-0.60752 0.10619,0.58277 -0.10345,1.59882 -0.41296,2.71475 -1.55968,5.62351 -0.46703,1.18467 -0.84562,2.31353 -0.84131,2.50859 0.0135,0.61232 1.07253,-0.81995 2.13486,-2.88737 1.71442,-3.33643 2.68152,-6.97029 2.68152,-10.07572 0,-2.78978 -0.18936,-3.30762 -1.84519,-5.046001 -1.32333,-1.38931 -2.34617,-1.986797 -2.12069,-1.238783 0.54079,1.793988 1.06458,4.258514 0.99666,4.689454 -0.0467,0.2965 -0.0179,0.49761 0.0642,0.44692 0.19548,-0.12082 0.0596,3.28509 -0.1999,5.01069 -0.29175,1.94007 -0.65702,2.98344 -1.95912,5.59609 -1.55636,3.12281 -2.82982,4.87071 -5.21054,7.15179 -3.08155,2.95256 -5.56068,4.69776 -12.10978,8.52474 -1.53892,0.89927 -2.9252,1.7561 -3.08061,1.90406 -0.4847,0.46148 0.10263,0.31926 1.66752,-0.40376 z m 21.14457,-25.66745 c 0.002,-0.42453 0.0417,-0.57549 0.0878,-0.33545 0.0462,0.24004 0.0444,0.58738 -0.004,0.77188 -0.0483,0.18449 -0.0861,-0.0119 -0.0839,-0.43643 z M 54.214066,125.2091 c 0,-0.0835 -0.890069,-0.66118 -1.97793,-1.28369 -7.425594,-4.24919 -11.537577,-7.26581 -12.58685,-9.23391 -0.209867,-0.39364 -0.470375,-0.71577 -0.578906,-0.71585 -0.108531,-7e-5 -0.210066,-0.2206 -0.225633,-0.49006 -0.01557,-0.26946 -0.254366,-0.69943 -0.530664,-0.95549 -0.276298,-0.25607 -0.50236,-0.55656 -0.50236,-0.66776 0,-0.42475 -0.557777,-0.17569 -0.932714,0.41648 -0.403174,0.63677 -0.375122,1.02395 0.06203,0.8562 0.158618,-0.0609 0.21712,0.0232 0.162213,0.23321 -0.04723,0.18062 0.13616,0.58659 0.407543,0.90216 0.271383,0.31557 0.493529,0.62331 0.493659,0.68388 4.61e-4,0.21556 4.030942,3.68019 5.620266,4.83122 2.419964,1.75261 6.253823,3.8772 9.225994,5.11272 1.187436,0.49362 1.36335,0.53373 1.36335,0.31089 z m 96.046164,0.0353 c -0.0641,-0.0641 -0.23055,-0.071 -0.36985,-0.0152 -0.15394,0.0616 -0.10822,0.10733 0.11658,0.11659 0.20342,0.008 0.3174,-0.0372 0.25327,-0.10135 z m -46.35672,-9.14592 c -0.0656,-0.10613 -0.22268,-0.19164 -0.34908,-0.19001 -0.13809,0.002 -0.11429,0.0776 0.0596,0.19001 0.37072,0.23958 0.43752,0.23958 0.28945,0 z m -6.570579,-2.47566 c -0.631625,-0.5514 -3.860857,-2.78498 -4.911055,-3.39686 -0.689863,-0.40194 -1.314702,-0.82729 -1.388531,-0.94523 -0.07383,-0.11793 -0.198293,-0.15037 -0.276588,-0.0721 -0.07829,0.0783 -0.06131,0.22135 0.03775,0.31789 0.355717,0.34668 6.359143,4.25335 6.538424,4.25482 0.115781,9.5e-4 0.115781,-0.0575 0,-0.15854 z m -60.801819,-1.89245 c 0.279805,-0.2798 0.508736,-0.58373 0.508736,-0.67539 0,-0.25464 -0.341013,-0.19828 -0.451107,0.0746 -0.05353,0.13266 -0.104186,-0.12012 -0.112565,-0.56174 -0.01558,-0.82133 -0.726142,-2.95994 -0.983448,-2.95994 -0.07853,0 -0.250683,0.26051 -0.382568,0.5789 -0.131885,0.3184 -0.316091,0.57891 -0.409348,0.57891 -0.235332,0 -0.211944,-0.26636 0.04604,-0.52435 0.339769,-0.33977 0.32239,-2.35675 -0.02263,-2.62639 -0.159199,-0.12442 -0.306391,-0.57197 -0.327093,-0.99455 -0.0207,-0.42259 -0.120028,-0.79581 -0.220726,-0.82937 -0.100697,-0.0336 -0.138758,-0.23054 -0.08458,-0.43772 0.05806,-0.22204 0.0016,-0.37668 -0.137615,-0.37668 -0.129867,0 -0.189823,-0.12065 -0.133236,-0.26812 0.05659,-0.14746 -0.0569,-0.90727 -0.252184,-1.68847 -0.195287,-0.7812 -0.4136,-1.78942 -0.485138,-2.24048 -0.07154,-0.45107 -0.189975,-0.82012 -0.263192,-0.82012 -0.268164,0 -0.805512,0.79625 -0.677321,1.00367 0.07611,0.12314 0.04466,0.15972 -0.07418,0.0863 -0.113466,-0.0701 -0.251261,-0.0184 -0.306211,0.11491 -0.05495,0.13333 -0.04085,-0.0615 0.03134,-0.43297 0.187687,-0.96581 0.162818,-2.49913 -0.04146,-2.55642 -0.350599,-0.0983 -0.724549,1.47123 -0.609078,2.55642 0.06211,0.58373 0.149152,1.62576 0.19342,2.31562 0.161736,2.52047 0.372423,3.29828 1.653799,6.10546 0.200548,0.43936 0.42173,1.02632 0.491515,1.30437 0.06978,0.27804 0.204099,0.55326 0.298474,0.61159 0.09438,0.0583 0.171592,0.26497 0.171592,0.45922 0,0.47327 0.756234,1.40458 0.765455,0.94267 0.0035,-0.17689 -0.09989,-0.35705 -0.229814,-0.40036 -0.129929,-0.0433 -0.03788,-0.13062 0.204563,-0.19402 0.418044,-0.10932 0.436276,-0.0719 0.353209,0.72527 -0.06286,0.60327 -0.01166,0.86968 0.181374,0.94376 0.14793,0.0568 0.268963,0.23619 0.268963,0.39872 0,0.45004 0.4682,0.35359 1.035014,-0.21323 z m -2.273996,-2.16804 c -0.07402,-0.11977 -0.03198,-0.21775 0.09341,-0.21775 0.172218,0 0.170541,-0.0692 -0.0069,-0.28297 -0.129162,-0.15563 -0.190068,-0.39443 -0.135347,-0.53066 0.06516,-0.16223 0.104751,-0.13672 0.114728,0.0739 0.0084,0.17689 0.115946,0.35519 0.239038,0.39622 0.158797,0.0529 0.166554,0.1769 0.0267,0.4268 -0.131935,0.23575 -0.241593,0.2802 -0.331676,0.13445 z m -1.160721,-6.44932 c 0.07247,-0.19031 0.180366,-0.2974 0.239779,-0.23799 0.05941,0.0594 1.22e-4,0.21512 -0.131756,0.34602 -0.190579,0.18916 -0.212744,0.16699 -0.108023,-0.10803 z m 70.430275,-1.25817 c -0.3745,-0.0813 -1.1081,0.32578 -0.97503,0.54109 0.0584,0.0945 0.36431,0.025 0.67978,-0.1544 0.36373,-0.20689 0.47175,-0.34836 0.29525,-0.38669 z m 4.47341,0.23331 c -0.0641,-0.0641 -0.23056,-0.071 -0.36986,-0.0152 -0.15394,0.0616 -0.10821,0.10733 0.11659,0.11659 0.20342,0.008 0.31739,-0.0372 0.25327,-0.10135 z M 37.067413,99.0632 c 0.211913,-0.41538 0.33582,-0.80472 0.27535,-0.86519 -0.06047,-0.0605 -0.137911,-0.0738 -0.172089,-0.0295 -0.202868,0.26248 -1.09567,1.90834 -1.09567,2.01984 0,0.29825 0.631524,-0.41772 0.992409,-1.12511 z m -3.214387,-3.40823 c -0.108247,-1.995799 -0.186014,-2.501844 -0.327918,-2.13383 -0.225253,0.58417 -0.109974,4.81091 0.142183,5.21321 0.298392,0.47605 0.34061,-0.22388 0.185735,-3.07938 z M 167.69065,91.736715 c -0.90253,-3.569051 -1.95239,-6.347867 -3.14567,-8.32615 -4.2314,-7.014999 -6.46614,-9.426117 -12.63423,-13.63139 -1.95593,-1.333514 -6.29921,-3.827228 -7.96653,-4.574027 -3.46151,-1.55042 -6.37476,-2.688389 -10.30375,-4.024831 -10.45658,-3.5568 -19.86706,-5.15516 -30.31586,-5.149118 -8.973318,0.0052 -17.126355,1.02393 -25.954295,3.24305 -7.727943,1.942608 -14.301147,4.613961 -20.742613,8.429806 -1.48502,0.879707 -2.76585,1.577759 -2.846289,1.551226 -0.08044,-0.02653 -0.146253,0.02787 -0.146253,0.120899 0,0.09303 -1.107159,0.960059 -2.460352,1.926734 -4.228455,3.020666 -13.799967,11.697233 -15.569235,14.113499 -0.690269,0.942691 -1.064551,1.971437 -1.565904,4.304017 -0.498757,2.320501 -0.435116,2.298273 2.267608,-0.791998 3.824848,-4.373296 8.491391,-8.905928 13.81477,-13.418342 1.206625,-1.022806 4.520564,-3.298302 7.345563,-5.043784 2.188997,-1.352516 8.354687,-4.35518 11.45085,-5.576514 5.28958,-2.086564 13.268792,-4.048645 20.039697,-4.927741 11.778823,-1.529296 20.338363,-1.340895 30.400323,0.669131 4.87015,0.972886 11.20786,2.913554 16.48136,5.04675 3.36787,1.362347 8.40286,4.020249 9.28296,4.90035 0.20101,0.201012 0.39576,0.343766 0.43277,0.317233 0.1367,-0.09801 2.78459,1.993284 4.49875,3.553104 2.93945,2.674788 8.32493,8.638369 11.73436,12.993966 0.83077,1.061328 1.85497,2.29064 2.276,2.731805 0.42102,0.441165 0.7129,0.887214 0.64862,0.991221 -0.0643,0.104007 0.0124,0.296411 0.17046,0.427565 0.15803,0.131154 0.28733,0.177377 0.28733,0.102718 0,-0.07466 0.62956,0.439893 1.39902,1.14345 1.65077,1.509376 1.7551,1.406706 1.12054,-1.102629 z m 0.95388,-9.697255 c 0,-0.159199 -0.0341,-0.289453 -0.0758,-0.289453 -0.0417,0 -0.12582,0.130254 -0.18692,0.289453 -0.0611,0.159199 -0.027,0.289453 0.0758,0.289453 0.10281,0 0.18692,-0.130254 0.18692,-0.289453 z M 32.70163,79.685505 c 0.30853,-0.738415 0.657792,-1.224658 0.388289,-0.540576 -0.08362,0.212265 -0.194419,0.581318 -0.24621,0.820117 -0.05179,0.238799 -0.172043,0.434179 -0.267228,0.434179 -0.09518,0 -0.03887,-0.321174 0.125149,-0.71372 z m 133.4343,-0.637061 c -0.1136,-0.212265 -0.16313,-0.385937 -0.11006,-0.385937 0.0531,0 0.18943,0.173672 0.30303,0.385937 0.1136,0.212266 0.16313,0.385938 0.11006,0.385938 -0.0531,0 -0.18943,-0.173672 -0.30303,-0.385938 z"
       id="path1" /></g></svg>
